<svg width="888" height="450" viewBox="0 0 888 450" fill="none" xmlns="http://www.w3.org/2000/svg">
<g clip-path="url(#clip0_1047_91959)">
<rect width="888" height="450" fill="#FBF9F8"/>
<text fill="#161513" xml:space="preserve" style="white-space: pre" font-family="Oracle Sans" font-size="24" font-weight="bold" letter-spacing="0em"><tspan x="245.062" y="68.224">8 Key Steps to Exit the Data Center</tspan></text>
<path d="M272 251C288.569 251 302 237.569 302 221C302 204.431 288.569 191 272 191C255.431 191 242 204.431 242 221C242 237.569 255.431 251 272 251Z" fill="#437C94"/>
<mask id="mask0_1047_91959" style="mask-type:alpha" maskUnits="userSpaceOnUse" x="242" y="191" width="60" height="60">
<path d="M272 251C255.431 251 242 237.569 242 221C242 204.431 255.431 191 272 191C288.569 191 302 204.431 302 221C302 237.569 288.569 251 272 251Z" fill="#437C94"/>
</mask>
<g mask="url(#mask0_1047_91959)">
<path d="M236.933 193.156C253.376 192.248 266.468 200.169 278.881 209.661C281.914 211.979 284.438 214.666 287.527 216.929C291.441 219.797 296.512 221.939 301.163 223.388C310.785 226.387 325.177 224.182 329.778 214.164C332.251 208.783 330.945 202.438 328.57 197.27C328.443 196.992 328.317 196.707 328.192 196.416C328.067 196.126 327.944 195.825 327.82 195.525C327.699 194.89 327.575 194.614 327.448 194.562C327.324 194.267 327.194 194.489 327.071 193.67C326.941 193.696 326.814 193.094 326.685 192.773C326.555 192.346 326.42 192.29 326.284 191.775C326.146 191.748 326.007 191.326 325.863 190.91C325.722 190.182 325.576 189.934 325.419 189.911C325.264 189.713 325.108 189.338 324.944 189.085C324.78 188.797 324.61 188.69 324.436 188.151C324.261 187.613 324.077 187.625 323.887 187.445C323.694 187.074 323.5 186.869 323.296 186.567C323.069 186.327 322.855 186.073 322.657 185.808C322.434 185.537 322.204 185.297 321.962 185.232C321.456 184.882 320.923 184.431 320.365 184.074C315.902 181.202 309.905 180.059 304.845 179.068C299.998 178.118 295.027 177.782 290.152 176.997C284.281 176.048 279.149 173.348 273.436 172.02C266.884 170.499 259.565 172.362 252.907 172.724C248.326 172.973 243.836 173.872 239.409 175.031C234.063 176.429 231.065 178.266 231.611 184.006C231.997 188.083 234.946 189.862 236.933 193.156Z" fill="#3B7087"/>
<path d="M310.156 289.444C294.336 284.862 284.589 273.054 276.002 259.989C273.904 256.798 272.407 253.427 270.236 250.269C267.487 246.267 263.407 242.568 259.495 239.661C251.401 233.648 237.09 230.969 229.444 238.902C225.336 243.164 224.477 249.585 225.016 255.248C225.044 255.553 225.068 255.864 225.091 256.179C225.113 256.495 225.13 256.819 225.148 257.144C225.053 257.783 225.079 258.084 225.182 258.175C225.202 258.495 225.398 258.329 225.244 259.142C225.375 259.161 225.296 259.771 225.312 260.117C225.294 260.563 225.403 260.66 225.361 261.192C225.483 261.263 225.475 261.707 225.474 262.148C225.367 262.881 225.423 263.164 225.564 263.237C225.644 263.475 225.669 263.881 225.74 264.174C225.8 264.5 225.925 264.658 225.912 265.223C225.899 265.789 226.077 265.838 226.196 266.071C226.256 266.485 226.372 266.743 226.465 267.095C226.6 267.398 226.718 267.708 226.818 268.024C226.939 268.353 227.077 268.656 227.284 268.797C227.646 269.295 228.001 269.896 228.41 270.418C231.676 274.605 236.959 277.668 241.409 280.278C245.671 282.777 250.253 284.739 254.594 287.093C259.823 289.931 263.778 294.177 268.732 297.32C274.416 300.923 281.938 301.585 288.342 303.446C292.748 304.726 297.283 305.363 301.843 305.733C307.35 306.182 310.786 305.44 312.162 299.841C313.142 295.866 310.945 293.211 310.156 289.444Z" fill="#558EA4"/>
<path d="M274.612 189.524C274.136 189.309 273.648 189.165 273.185 188.946C272.763 188.596 272.286 188.435 271.787 188.354C271.339 188.106 270.787 188.205 270.41 187.743C270.193 187.616 269.966 187.507 269.731 187.417C269.482 187.37 269.248 187.265 269.048 187.111C268.818 187.016 268.568 186.988 268.358 186.835C268.089 186.87 267.966 186.425 267.696 186.457C267.426 186.489 267.174 186.468 267.021 186.12C266.747 186.163 266.596 185.808 266.344 185.776C265.889 185.558 265.485 185.178 264.992 185.082C264.528 184.892 264.131 184.491 263.641 184.39C263.166 184.238 262.751 183.895 262.291 183.696C261.838 183.462 261.408 183.174 260.942 182.996C260.748 182.781 260.517 182.688 260.281 182.611C260.045 182.533 259.806 182.464 259.601 182.29C259.396 182.132 259.178 181.992 258.951 181.869C258.792 181.743 258.609 181.89 258.265 181.57C258.276 181.636 257.737 181.274 257.618 181.128C257.076 181.266 257.15 181.194 256.899 180.887C256.662 180.801 256.402 180.547 256.229 180.466C256.09 180.414 255.858 180.636 255.483 180.268C255.11 180.221 254.845 179.559 254.768 179.958C254.913 179.904 254.823 179.61 254.039 179.685C253.916 179.219 253.572 179.365 253.326 179.356C253.122 179.172 253.327 179.064 252.586 179.115C252.465 179.129 251.982 179.019 251.851 178.862C251.576 178.819 250.962 178.596 251.146 178.529C250.933 178.618 250.817 178.145 250.48 178.08C250.109 178.028 250.351 177.974 249.738 177.903C249.396 177.568 249.301 177.958 249.055 177.523C248.849 177.557 248.437 177.313 248.363 177.194C247.841 177.059 248.023 176.929 247.698 176.785C247.234 176.533 247.325 176.488 247.023 176.421C247.155 176.244 246.783 176.173 246.366 176.002C246.138 175.818 245.597 175.736 245.698 175.623C245.491 175.47 245.268 175.339 245.034 175.231C244.881 175.056 244.472 174.998 244.365 174.85C244.159 174.671 243.921 174.588 243.685 174.502C243.448 174.416 243.212 174.327 243.006 174.137C242.569 173.841 242.058 173.774 241.6 173.525C241.146 173.25 240.67 173.035 240.127 173.038C239.606 172.999 239.096 172.874 238.616 172.667C238.079 172.65 237.608 172.422 237.085 172.359C236.58 172.241 236.026 172.279 235.55 172.066C235.032 171.987 234.505 171.938 234.024 171.742C233.528 171.594 233.024 171.47 232.523 171.337C232.033 171.185 231.562 170.974 231.051 170.898C230.579 170.694 230.063 170.635 229.575 170.487C229.084 170.351 228.574 170.275 228.097 170.095C227.603 169.967 227.109 169.839 226.613 169.713C225.623 169.46 226.004 169.729 224.738 169.589C224.06 169.411 224.07 169.559 223.505 169.507C223.004 169.503 221.247 169.832 220.456 170.64C219.665 171.448 219.617 172.371 219.93 173.936C220.197 175.266 222.182 176.907 222.624 178.318C223.066 179.73 222.965 183.216 223.741 184.561C225.045 186.826 228.963 187.83 231.381 188.93C233.8 190.03 236.325 188.745 239.155 189.41C241.958 190.067 244.647 191.403 247.151 192.347C249.312 193.162 250.987 194.273 252.841 195.388C254.696 196.502 257.035 197.201 258.852 198.396C260.802 199.678 262.49 201.008 264.528 201.947C266.567 202.887 268.738 203.639 271.081 204.297C273.443 204.958 275.88 205.111 278.13 205.872C280.381 206.634 282.332 208.144 284.577 209.156C286.801 210.155 289.228 210.796 291.447 211.78C293.665 212.763 295.899 213.597 298.215 214.431C300.394 215.216 302.336 216.882 304.556 217.56C306.776 218.237 309.256 217.682 311.476 218.315C314.902 219.293 319.191 220.985 322.292 220.291C325.312 219.621 325.33 217.357 325.599 215.252C325.719 214.316 326.263 213.449 326.644 212.529C326.843 212.073 326.97 211.588 327.019 211.093C327.122 210.466 326.995 210.266 326.852 209.932C326.705 209.611 326.556 209.111 326.355 208.73C326.22 208.135 325.88 208.151 325.766 207.526C325.652 206.901 325.411 206.765 325.323 206.359C325.262 205.697 325.057 205.466 324.876 205.081C324.702 204.711 324.489 204.36 324.239 204.036C323.994 203.716 323.752 203.306 323.399 203.146C323.047 202.986 322.723 202.626 322.335 202.351C321.972 201.992 321.468 201.966 321.026 201.59C320.665 201.286 320.199 201.31 319.839 200.973C319.421 200.806 319.016 200.61 318.626 200.386C318.198 200.245 317.844 199.851 317.367 199.836C316.919 199.701 316.482 199.534 316.058 199.337C315.596 199.236 315.22 198.834 314.692 198.903C314.26 198.664 313.713 198.772 313.261 198.547C312.76 198.5 312.265 198.404 311.783 198.261C311.318 198.087 310.779 198.175 310.32 198.023C309.838 197.943 309.388 197.782 308.887 197.82C308.417 197.752 308 197.54 307.498 197.636C307.007 197.697 306.621 197.45 306.168 197.457C305.695 197.528 305.367 197.168 304.911 197.264C304.514 196.808 304.385 197.167 304.149 197.146C304.007 197.18 303.823 196.848 303.389 197.038C303.083 197.027 302.878 197.121 302.569 197.135C302.607 197.025 301.939 197.168 301.867 196.854C301.538 196.494 301.409 196.953 301.087 196.825C300.651 197 300.519 196.547 300.343 196.685C300.116 196.416 299.746 197.126 299.575 196.61C299.433 196.46 299.102 196.526 298.815 196.502C298.625 196.598 298.354 196.273 298.058 196.37C297.836 196.224 297.563 196.242 297.282 196.278C297.023 196.25 296.74 196.293 296.518 196.14C296.276 196.052 295.938 196.264 295.746 196.018C295.526 195.854 295.22 195.966 294.971 195.894C294.717 195.834 294.403 195.978 294.201 195.745C293.927 195.75 293.708 195.586 293.428 195.604C293.204 195.445 292.914 195.512 292.655 195.46C292.297 195.439 291.972 195.313 291.625 195.264C291.284 195.191 290.929 195.165 290.598 195.064C290.28 194.92 289.931 194.875 289.576 194.861C289.016 194.92 288.573 194.55 288.05 194.423C287.577 194.132 287.051 193.994 286.539 193.8C286.036 193.577 285.485 193.501 285.035 193.101C284.534 192.868 284.04 192.615 283.531 192.43C283.041 192.181 282.507 192.097 282.016 191.901C281.769 191.813 281.516 191.747 281.266 191.678C281.024 191.578 280.71 191.722 280.513 191.481C280.086 191.109 279.564 191.066 279.033 191.049C278.535 190.924 278.058 190.731 277.564 190.589C277.073 190.423 276.583 190.274 276.092 190.089C275.567 189.997 275.065 189.805 274.612 189.524Z" fill="#558EA4"/>
</g>
<path d="M676 171C692.569 171 706 157.569 706 141C706 124.431 692.569 111 676 111C659.431 111 646 124.431 646 141C646 157.569 659.431 171 676 171Z" fill="#437C94"/>
<mask id="mask1_1047_91959" style="mask-type:alpha" maskUnits="userSpaceOnUse" x="646" y="111" width="60" height="60">
<path d="M676 171C659.431 171 646 157.569 646 141C646 124.431 659.431 111 676 111C692.569 111 706 124.431 706 141C706 157.569 692.569 171 676 171Z" fill="#437C94"/>
</mask>
<g mask="url(#mask1_1047_91959)">
<path d="M640.933 113.156C657.376 112.248 670.468 120.169 682.881 129.661C685.914 131.979 688.438 134.666 691.527 136.929C695.441 139.797 700.512 141.939 705.163 143.388C714.785 146.387 729.177 144.182 733.778 134.164C736.251 128.783 734.945 122.438 732.57 117.27C732.443 116.992 732.317 116.707 732.192 116.416C732.067 116.126 731.944 115.825 731.82 115.525C731.699 114.89 731.575 114.614 731.448 114.562C731.324 114.267 731.194 114.489 731.071 113.67C730.941 113.696 730.814 113.094 730.685 112.773C730.555 112.346 730.42 112.29 730.284 111.775C730.146 111.748 730.007 111.326 729.863 110.91C729.722 110.182 729.576 109.934 729.419 109.911C729.264 109.713 729.108 109.338 728.944 109.085C728.78 108.797 728.61 108.69 728.436 108.151C728.261 107.613 728.077 107.625 727.887 107.445C727.694 107.074 727.5 106.869 727.296 106.567C727.069 106.327 726.855 106.073 726.657 105.808C726.434 105.537 726.204 105.297 725.962 105.232C725.456 104.882 724.923 104.431 724.365 104.074C719.902 101.202 713.905 100.059 708.845 99.0676C703.998 98.1181 699.027 97.7823 694.152 96.9967C688.281 96.0476 683.149 93.3476 677.436 92.0198C670.884 90.4993 663.565 92.3621 656.907 92.7237C652.326 92.9729 647.836 93.8717 643.409 95.0311C638.063 96.4292 635.065 98.2657 635.611 104.006C635.997 108.083 638.946 109.862 640.933 113.156Z" fill="#3B7087"/>
<path d="M714.156 209.444C698.336 204.862 688.589 193.054 680.002 179.989C677.904 176.798 676.407 173.427 674.236 170.269C671.487 166.267 667.407 162.568 663.495 159.661C655.401 153.648 641.09 150.969 633.444 158.902C629.336 163.164 628.477 169.585 629.016 175.248C629.044 175.553 629.068 175.864 629.091 176.179C629.113 176.495 629.13 176.819 629.148 177.144C629.053 177.783 629.079 178.084 629.182 178.175C629.202 178.495 629.398 178.329 629.244 179.142C629.375 179.161 629.296 179.771 629.312 180.117C629.294 180.563 629.403 180.66 629.361 181.192C629.483 181.263 629.475 181.707 629.474 182.148C629.367 182.881 629.423 183.164 629.564 183.237C629.644 183.475 629.669 183.881 629.74 184.174C629.8 184.5 629.925 184.658 629.912 185.223C629.899 185.789 630.077 185.838 630.196 186.071C630.256 186.485 630.372 186.743 630.465 187.095C630.6 187.398 630.718 187.708 630.818 188.024C630.939 188.353 631.077 188.656 631.284 188.797C631.646 189.295 632.001 189.896 632.41 190.418C635.676 194.605 640.959 197.668 645.409 200.278C649.671 202.777 654.253 204.739 658.594 207.093C663.823 209.931 667.778 214.177 672.732 217.32C678.416 220.923 685.938 221.585 692.342 223.446C696.748 224.726 701.283 225.363 705.843 225.733C711.35 226.182 714.786 225.44 716.162 219.841C717.142 215.866 714.945 213.211 714.156 209.444Z" fill="#558EA4"/>
<path d="M678.612 109.524C678.136 109.309 677.648 109.165 677.185 108.946C676.763 108.596 676.286 108.435 675.787 108.354C675.339 108.106 674.787 108.205 674.41 107.743C674.193 107.616 673.966 107.507 673.731 107.417C673.482 107.37 673.248 107.265 673.048 107.111C672.818 107.016 672.568 106.988 672.358 106.835C672.089 106.87 671.966 106.425 671.696 106.457C671.426 106.489 671.174 106.468 671.021 106.12C670.747 106.163 670.596 105.808 670.344 105.776C669.889 105.558 669.485 105.178 668.992 105.082C668.528 104.892 668.131 104.491 667.641 104.39C667.166 104.238 666.751 103.895 666.291 103.696C665.838 103.462 665.408 103.174 664.942 102.996C664.748 102.781 664.517 102.688 664.281 102.611C664.045 102.533 663.806 102.464 663.601 102.29C663.396 102.132 663.178 101.992 662.951 101.869C662.792 101.743 662.609 101.89 662.265 101.57C662.276 101.636 661.737 101.274 661.618 101.128C661.076 101.266 661.15 101.194 660.899 100.887C660.662 100.801 660.402 100.547 660.229 100.466C660.09 100.414 659.858 100.636 659.483 100.268C659.11 100.221 658.845 99.5593 658.768 99.9577C658.913 99.9039 658.823 99.61 658.039 99.6851C657.916 99.2189 657.572 99.3653 657.326 99.3564C657.122 99.1724 657.327 99.0636 656.586 99.1148C656.465 99.1294 655.982 99.0185 655.851 98.8615C655.576 98.819 654.962 98.5962 655.146 98.5289C654.933 98.6182 654.817 98.1453 654.48 98.0798C654.109 98.0277 654.351 97.9739 653.738 97.9027C653.396 97.5679 653.301 97.9575 653.055 97.5229C652.849 97.5567 652.437 97.3126 652.363 97.1935C651.841 97.0589 652.023 96.9293 651.698 96.785C651.234 96.5326 651.325 96.4879 651.023 96.4207C651.155 96.2436 650.783 96.1733 650.366 96.0024C650.138 95.8184 649.597 95.7361 649.698 95.6232C649.491 95.4701 649.268 95.3386 649.034 95.2306C648.881 95.0565 648.472 94.9982 648.365 94.8503C648.159 94.6708 647.921 94.5878 647.685 94.5021C647.448 94.4163 647.212 94.327 647.006 94.1367C646.569 93.8406 646.058 93.774 645.6 93.5248C645.146 93.2499 644.67 93.0351 644.127 93.0376C643.606 92.9992 643.096 92.874 642.616 92.6671C642.079 92.6498 641.608 92.4223 641.085 92.3589C640.58 92.2411 640.026 92.279 639.55 92.0663C639.032 91.9874 638.505 91.9383 638.024 91.7418C637.528 91.5935 637.024 91.47 636.523 91.3373C636.033 91.1854 635.562 90.9744 635.051 90.8975C634.579 90.6938 634.063 90.6348 633.575 90.4868C633.084 90.3509 632.574 90.2753 632.097 90.0948C631.603 89.9666 631.109 89.8393 630.613 89.7128C629.623 89.4603 630.004 89.7287 628.738 89.5892C628.06 89.411 628.07 89.5588 627.505 89.5069C627.004 89.5031 625.247 89.8325 624.456 90.6402C623.665 91.448 623.617 92.3709 623.93 93.9359C624.197 95.266 626.182 96.9068 626.624 98.3184C627.066 99.73 626.965 103.216 627.741 104.561C629.045 106.826 632.963 107.83 635.381 108.93C637.8 110.03 640.325 108.745 643.155 109.41C645.958 110.067 648.647 111.403 651.151 112.347C653.312 113.162 654.987 114.273 656.841 115.388C658.696 116.502 661.035 117.201 662.852 118.396C664.802 119.678 666.49 121.008 668.528 121.947C670.567 122.887 672.738 123.639 675.081 124.297C677.443 124.958 679.88 125.111 682.13 125.872C684.381 126.634 686.332 128.144 688.577 129.156C690.801 130.155 693.228 130.796 695.447 131.78C697.665 132.763 699.899 133.597 702.215 134.431C704.394 135.216 706.336 136.882 708.556 137.56C710.776 138.237 713.256 137.682 715.476 138.315C718.902 139.293 723.191 140.985 726.292 140.291C729.312 139.621 729.33 137.357 729.599 135.252C729.719 134.316 730.263 133.449 730.644 132.529C730.843 132.073 730.97 131.588 731.019 131.093C731.122 130.466 730.995 130.266 730.852 129.932C730.705 129.611 730.556 129.111 730.355 128.73C730.22 128.135 729.88 128.151 729.766 127.526C729.652 126.901 729.411 126.765 729.323 126.359C729.262 125.697 729.057 125.466 728.876 125.081C728.702 124.711 728.489 124.36 728.239 124.036C727.994 123.716 727.752 123.306 727.399 123.146C727.047 122.986 726.723 122.626 726.335 122.351C725.972 121.992 725.468 121.966 725.026 121.59C724.665 121.286 724.199 121.31 723.839 120.973C723.421 120.806 723.016 120.61 722.626 120.386C722.198 120.245 721.844 119.851 721.367 119.836C720.919 119.701 720.482 119.534 720.058 119.337C719.596 119.236 719.22 118.834 718.692 118.903C718.26 118.664 717.713 118.772 717.261 118.547C716.76 118.5 716.265 118.404 715.783 118.261C715.318 118.087 714.779 118.175 714.32 118.023C713.838 117.943 713.388 117.782 712.887 117.82C712.417 117.752 712 117.54 711.498 117.636C711.007 117.697 710.621 117.45 710.168 117.457C709.695 117.528 709.367 117.168 708.911 117.264C708.514 116.808 708.385 117.167 708.149 117.146C708.007 117.18 707.823 116.848 707.389 117.038C707.083 117.027 706.878 117.121 706.569 117.135C706.607 117.025 705.939 117.168 705.867 116.854C705.538 116.494 705.409 116.953 705.087 116.825C704.651 117 704.519 116.547 704.343 116.685C704.116 116.416 703.746 117.126 703.575 116.61C703.433 116.46 703.102 116.526 702.815 116.502C702.625 116.598 702.354 116.273 702.058 116.37C701.836 116.224 701.563 116.242 701.282 116.278C701.023 116.25 700.74 116.293 700.518 116.14C700.276 116.052 699.938 116.264 699.746 116.018C699.526 115.854 699.22 115.966 698.971 115.894C698.717 115.834 698.403 115.978 698.201 115.745C697.927 115.75 697.708 115.586 697.428 115.604C697.204 115.445 696.914 115.512 696.655 115.46C696.297 115.439 695.972 115.313 695.625 115.264C695.284 115.191 694.929 115.165 694.598 115.064C694.28 114.92 693.931 114.875 693.576 114.861C693.016 114.92 692.573 114.55 692.05 114.423C691.577 114.132 691.051 113.994 690.539 113.8C690.036 113.577 689.485 113.501 689.035 113.101C688.534 112.868 688.04 112.615 687.531 112.43C687.041 112.181 686.507 112.097 686.016 111.901C685.769 111.813 685.516 111.747 685.266 111.678C685.024 111.578 684.71 111.722 684.513 111.481C684.086 111.109 683.564 111.066 683.033 111.049C682.535 110.924 682.058 110.731 681.564 110.589C681.073 110.423 680.583 110.274 680.092 110.089C679.567 109.997 679.065 109.805 678.612 109.524Z" fill="#558EA4"/>
</g>
<path d="M373 231C389.569 231 403 217.569 403 201C403 184.431 389.569 171 373 171C356.431 171 343 184.431 343 201C343 217.569 356.431 231 373 231Z" fill="#6B7494"/>
<mask id="mask2_1047_91959" style="mask-type:alpha" maskUnits="userSpaceOnUse" x="343" y="171" width="61" height="60">
<path d="M373.022 231C356.442 231 343 217.618 343 201.111C343 184.604 356.442 171.223 373.022 171.223C389.603 171.223 403.045 184.604 403.045 201.111C403.045 217.618 389.603 231 373.022 231Z" fill="#437C94"/>
</mask>
<g mask="url(#mask2_1047_91959)">
<path d="M337.71 173.153C354.153 172.249 367.245 180.135 379.658 189.584C382.691 191.892 385.215 194.566 388.305 196.819C392.219 199.674 397.289 201.806 401.94 203.249C411.563 206.235 425.954 204.039 430.556 194.067C433.028 188.71 431.722 182.393 429.347 177.249C429.22 176.972 429.095 176.688 428.969 176.399C428.844 176.109 428.721 175.81 428.597 175.511C428.476 174.879 428.352 174.605 428.225 174.553C428.101 174.259 427.971 174.48 427.848 173.665C427.718 173.69 427.592 173.091 427.463 172.772C427.333 172.346 427.197 172.291 427.062 171.778C426.923 171.751 426.784 171.331 426.64 170.917C426.5 170.192 426.354 169.945 426.196 169.922C426.042 169.726 425.885 169.352 425.721 169.1C425.557 168.813 425.387 168.707 425.213 168.171C425.039 167.635 424.854 167.647 424.665 167.468C424.472 167.098 424.277 166.894 424.074 166.594C423.846 166.354 423.632 166.102 423.434 165.838C423.212 165.568 422.981 165.329 422.74 165.265C422.234 164.916 421.7 164.468 421.143 164.112C416.679 161.253 410.683 160.115 405.622 159.128C400.776 158.183 395.804 157.848 390.93 157.066C385.058 156.121 379.926 153.434 374.214 152.112C367.661 150.598 360.343 152.452 353.685 152.812C349.103 153.061 344.613 153.955 340.187 155.109C334.84 156.501 331.842 158.329 332.389 164.044C332.774 168.102 335.723 169.873 337.71 173.153Z" fill="#606988"/>
<path d="M410.933 269.01C395.113 264.448 385.367 252.694 376.779 239.687C374.681 236.51 373.184 233.154 371.014 230.011C368.265 226.027 364.185 222.345 360.273 219.451C352.178 213.464 337.867 210.798 330.222 218.695C326.114 222.938 325.255 229.33 325.793 234.968C325.821 235.271 325.846 235.581 325.868 235.895C325.89 236.209 325.907 236.532 325.926 236.855C325.83 237.491 325.857 237.791 325.959 237.882C325.979 238.2 326.175 238.035 326.021 238.845C326.152 238.863 326.073 239.47 326.089 239.814C326.071 240.258 326.181 240.356 326.138 240.885C326.261 240.955 326.253 241.398 326.251 241.836C326.144 242.566 326.2 242.848 326.341 242.921C326.422 243.157 326.446 243.562 326.517 243.854C326.577 244.178 326.702 244.335 326.689 244.898C326.676 245.461 326.854 245.51 326.974 245.742C327.034 246.155 327.15 246.411 327.242 246.762C327.378 247.063 327.496 247.371 327.596 247.686C327.716 248.014 327.855 248.315 328.061 248.455C328.423 248.951 328.778 249.55 329.187 250.07C332.453 254.238 337.736 257.287 342.186 259.885C346.448 262.373 351.03 264.326 355.372 266.669C360.601 269.494 364.555 273.721 369.509 276.85C375.193 280.437 382.715 281.096 389.119 282.949C393.525 284.224 398.06 284.858 402.62 285.226C408.127 285.673 411.563 284.934 412.939 279.361C413.92 275.403 411.722 272.76 410.933 269.01Z" fill="#606988"/>
<path d="M375.389 169.54C374.913 169.326 374.425 169.183 373.962 168.964C373.54 168.616 373.064 168.456 372.564 168.375C372.117 168.128 371.564 168.226 371.188 167.767C370.97 167.64 370.743 167.532 370.508 167.443C370.26 167.396 370.026 167.292 369.825 167.138C369.596 167.043 369.345 167.015 369.136 166.863C368.866 166.898 368.744 166.455 368.474 166.487C368.204 166.519 367.951 166.497 367.798 166.151C367.525 166.194 367.374 165.84 367.122 165.809C366.667 165.591 366.262 165.214 365.769 165.118C365.306 164.929 364.908 164.53 364.418 164.429C363.943 164.277 363.528 163.937 363.069 163.738C362.615 163.505 362.185 163.218 361.719 163.041C361.526 162.827 361.295 162.735 361.059 162.658C360.823 162.58 360.584 162.511 360.378 162.338C360.173 162.182 359.956 162.042 359.728 161.92C359.569 161.794 359.386 161.94 359.043 161.622C359.053 161.687 358.515 161.327 358.395 161.181C357.854 161.319 357.927 161.247 357.676 160.942C357.439 160.856 357.179 160.604 357.006 160.523C356.867 160.471 356.635 160.692 356.261 160.325C355.888 160.279 355.622 159.62 355.546 160.017C355.69 159.963 355.6 159.671 354.816 159.745C354.694 159.281 354.35 159.427 354.103 159.418C353.9 159.235 354.105 159.127 353.363 159.178C353.243 159.192 352.76 159.082 352.629 158.925C352.354 158.883 351.74 158.661 351.923 158.594C351.71 158.683 351.594 158.212 351.257 158.147C350.886 158.095 351.128 158.042 350.515 157.971C350.174 157.638 350.079 158.025 349.833 157.593C349.626 157.626 349.214 157.383 349.14 157.265C348.618 157.131 348.801 157.002 348.475 156.858C348.011 156.607 348.102 156.562 347.8 156.496C347.932 156.319 347.56 156.249 347.144 156.079C346.916 155.896 346.374 155.814 346.476 155.702C346.268 155.549 346.046 155.418 345.812 155.311C345.658 155.137 345.25 155.079 345.143 154.932C344.936 154.753 344.699 154.671 344.462 154.586C344.225 154.5 343.99 154.411 343.784 154.222C343.346 153.927 342.836 153.861 342.377 153.613C341.923 153.339 341.447 153.125 340.905 153.128C340.384 153.089 339.873 152.965 339.393 152.759C338.857 152.742 338.385 152.515 337.863 152.452C337.357 152.335 336.803 152.373 336.327 152.161C335.809 152.082 335.283 152.033 334.801 151.838C334.305 151.69 333.801 151.567 333.3 151.435C332.81 151.284 332.339 151.074 331.828 150.997C331.356 150.794 330.84 150.736 330.352 150.588C329.861 150.453 329.352 150.378 328.874 150.198C328.38 150.071 327.886 149.944 327.391 149.818C326.4 149.566 326.782 149.834 325.515 149.695C324.837 149.517 324.847 149.665 324.282 149.613C323.782 149.609 322.025 149.937 321.234 150.741C320.443 151.545 320.394 152.464 320.708 154.022C320.974 155.346 322.96 156.979 323.402 158.385C323.844 159.79 323.743 163.261 324.519 164.599C325.822 166.855 329.741 167.854 332.159 168.949C334.577 170.044 337.102 168.765 339.932 169.426C342.735 170.081 345.425 171.411 347.928 172.35C350.089 173.161 351.764 174.268 353.619 175.377C355.473 176.487 357.813 177.182 359.63 178.372C361.58 179.649 363.267 180.972 365.306 181.908C367.345 182.843 369.515 183.592 371.858 184.247C374.22 184.905 376.658 185.056 378.908 185.815C381.158 186.573 383.109 188.077 385.354 189.083C387.578 190.078 390.005 190.716 392.224 191.696C394.443 192.675 396.676 193.505 398.992 194.335C401.172 195.116 403.113 196.775 405.333 197.449C407.554 198.123 410.034 197.572 412.253 198.202C415.68 199.175 419.968 200.859 423.069 200.168C426.09 199.501 426.107 197.248 426.377 195.152C426.496 194.221 427.04 193.357 427.421 192.441C427.621 191.987 427.747 191.505 427.796 191.012C427.9 190.388 427.773 190.188 427.63 189.856C427.483 189.537 427.334 189.039 427.132 188.659C426.997 188.068 426.658 188.084 426.543 187.461C426.429 186.839 426.188 186.703 426.1 186.299C426.04 185.64 425.834 185.411 425.653 185.027C425.48 184.658 425.266 184.309 425.017 183.987C424.772 183.668 424.529 183.26 424.177 183.101C423.824 182.942 423.5 182.583 423.112 182.309C422.749 181.951 422.245 181.926 421.803 181.551C421.442 181.249 420.976 181.273 420.616 180.937C420.199 180.771 419.794 180.576 419.404 180.353C418.976 180.213 418.621 179.82 418.144 179.805C417.697 179.671 417.259 179.505 416.835 179.309C416.373 179.208 415.997 178.808 415.47 178.877C415.037 178.639 414.49 178.746 414.039 178.523C413.538 178.476 413.043 178.38 412.56 178.237C412.096 178.065 411.556 178.152 411.097 178.001C410.616 177.921 410.165 177.761 409.664 177.799C409.194 177.731 408.778 177.52 408.276 177.616C407.784 177.677 407.399 177.43 406.945 177.437C406.472 177.508 406.144 177.15 405.689 177.245C405.291 176.791 405.162 177.149 404.927 177.128C404.784 177.161 404.601 176.831 404.166 177.02C403.86 177.009 403.655 177.103 403.346 177.116C403.385 177.008 402.717 177.149 402.644 176.837C402.315 176.479 402.186 176.935 401.865 176.808C401.428 176.983 401.296 176.531 401.12 176.668C400.893 176.401 400.524 177.108 400.353 176.594C400.211 176.445 399.88 176.511 399.592 176.486C399.402 176.582 399.132 176.259 398.835 176.355C398.614 176.21 398.34 176.228 398.06 176.264C397.8 176.236 397.518 176.279 397.295 176.126C397.053 176.039 396.715 176.25 396.523 176.005C396.303 175.842 395.997 175.953 395.748 175.881C395.495 175.822 395.18 175.965 394.979 175.733C394.705 175.738 394.486 175.575 394.205 175.592C393.982 175.435 393.692 175.501 393.432 175.449C393.075 175.428 392.75 175.303 392.402 175.254C392.061 175.181 391.706 175.155 391.375 175.055C391.057 174.912 390.709 174.867 390.354 174.853C389.794 174.912 389.35 174.544 388.828 174.417C388.354 174.128 387.828 173.989 387.317 173.797C386.814 173.574 386.263 173.499 385.812 173.101C385.311 172.869 384.817 172.617 384.308 172.433C383.819 172.185 383.284 172.101 382.793 171.907C382.546 171.819 382.294 171.753 382.043 171.685C381.802 171.585 381.488 171.728 381.29 171.488C380.863 171.118 380.342 171.075 379.81 171.058C379.312 170.933 378.835 170.742 378.341 170.601C377.85 170.435 377.36 170.287 376.87 170.102C376.345 170.011 375.842 169.82 375.389 169.54Z" fill="#464C68"/>
</g>
<path d="M777 151C793.569 151 807 137.569 807 121C807 104.431 793.569 91 777 91C760.431 91 747 104.431 747 121C747 137.569 760.431 151 777 151Z" fill="#6B7494"/>
<mask id="mask3_1047_91959" style="mask-type:alpha" maskUnits="userSpaceOnUse" x="747" y="91" width="61" height="60">
<path d="M777.022 151C760.442 151 747 137.618 747 121.111C747 104.604 760.442 91.2227 777.022 91.2227C793.603 91.2227 807.045 104.604 807.045 121.111C807.045 137.618 793.603 151 777.022 151Z" fill="#437C94"/>
</mask>
<g mask="url(#mask3_1047_91959)">
<path d="M741.71 93.1529C758.153 92.2494 771.245 100.135 783.658 109.584C786.691 111.892 789.215 114.566 792.305 116.819C796.219 119.674 801.289 121.806 805.94 123.249C815.563 126.235 829.954 124.039 834.556 114.067C837.028 108.71 835.722 102.393 833.347 97.2486C833.22 96.9721 833.095 96.6878 832.969 96.3985C832.844 96.1093 832.721 95.8104 832.597 95.5114C832.476 94.8792 832.352 94.6046 832.225 94.5529C832.101 94.2588 831.971 94.4797 831.848 93.6647C831.718 93.6901 831.592 93.0911 831.463 92.7716C831.333 92.3465 831.197 92.2908 831.062 91.7777C830.923 91.7512 830.784 91.331 830.64 90.9165C830.5 90.1923 830.354 89.945 830.196 89.9223C830.042 89.7257 829.885 89.3522 829.721 89.0999C829.557 88.8133 829.387 88.7065 829.213 88.1707C829.039 87.6348 828.854 87.6472 828.665 87.4679C828.472 87.0981 828.277 86.8944 828.074 86.5938C827.846 86.3541 827.632 86.1016 827.434 85.8376C827.212 85.5682 826.981 85.3291 826.74 85.2648C826.234 84.9161 825.7 84.4675 825.143 84.1116C820.679 81.2528 814.683 80.1145 809.622 79.1277C804.776 78.1826 799.804 77.8483 794.93 77.0662C789.058 76.1213 783.926 73.4335 778.214 72.1117C771.661 70.598 764.343 72.4524 757.685 72.8124C753.103 73.0605 748.613 73.9553 744.187 75.1095C738.84 76.5013 735.842 78.3295 736.389 84.0438C736.774 88.1024 739.723 89.8732 741.71 93.1529Z" fill="#606988"/>
<path d="M814.933 189.01C799.113 184.448 789.367 172.694 780.779 159.687C778.681 156.51 777.184 153.154 775.014 150.011C772.265 146.027 768.185 142.345 764.273 139.451C756.178 133.464 741.867 130.798 734.222 138.695C730.114 142.938 729.255 149.33 729.793 154.968C729.821 155.271 729.846 155.581 729.868 155.895C729.89 156.209 729.907 156.532 729.926 156.855C729.83 157.491 729.857 157.791 729.959 157.882C729.979 158.2 730.175 158.035 730.021 158.845C730.152 158.863 730.073 159.47 730.089 159.814C730.071 160.258 730.181 160.356 730.138 160.885C730.261 160.955 730.253 161.398 730.251 161.836C730.144 162.566 730.2 162.848 730.341 162.921C730.422 163.157 730.446 163.562 730.517 163.854C730.577 164.178 730.702 164.335 730.689 164.898C730.676 165.461 730.854 165.51 730.974 165.742C731.034 166.155 731.15 166.411 731.242 166.762C731.378 167.063 731.496 167.371 731.596 167.686C731.716 168.014 731.855 168.315 732.061 168.455C732.423 168.951 732.778 169.55 733.187 170.07C736.453 174.238 741.736 177.287 746.186 179.885C750.448 182.373 755.03 184.326 759.372 186.669C764.601 189.494 768.555 193.721 773.509 196.85C779.193 200.437 786.715 201.096 793.119 202.949C797.525 204.224 802.06 204.858 806.62 205.226C812.127 205.673 815.563 204.934 816.939 199.361C817.92 195.403 815.722 192.76 814.933 189.01Z" fill="#606988"/>
<path d="M779.389 89.5396C778.913 89.3257 778.425 89.1829 777.962 88.9645C777.54 88.6157 777.064 88.4555 776.564 88.375C776.117 88.128 775.564 88.2265 775.188 87.7665C774.97 87.6404 774.743 87.5321 774.508 87.4428C774.26 87.396 774.026 87.2915 773.825 87.1377C773.596 87.0431 773.345 87.0152 773.136 86.8634C772.866 86.8976 772.744 86.4552 772.474 86.487C772.204 86.5188 771.951 86.4972 771.798 86.1512C771.525 86.1943 771.374 85.8403 771.122 85.809C770.667 85.5914 770.262 85.214 769.769 85.1183C769.306 84.9291 768.908 84.5299 768.418 84.4291C767.943 84.2772 767.528 83.9367 767.069 83.7379C766.615 83.5053 766.185 83.2183 765.719 83.0414C765.526 82.8272 765.295 82.7351 765.059 82.6577C764.823 82.5802 764.584 82.5112 764.378 82.3381C764.173 82.1815 763.956 82.0416 763.728 81.9199C763.569 81.7936 763.386 81.9402 763.043 81.6219C763.053 81.687 762.515 81.327 762.395 81.1812C761.854 81.3186 761.927 81.247 761.676 80.9418C761.439 80.8562 761.179 80.6038 761.006 80.5227C760.867 80.4706 760.635 80.6918 760.261 80.3252C759.888 80.2789 759.622 79.6201 759.546 80.0166C759.69 79.9631 759.6 79.6705 758.816 79.7453C758.694 79.2812 758.35 79.4269 758.103 79.4181C757.9 79.2349 758.105 79.1265 757.363 79.1775C757.243 79.1921 756.76 79.0817 756.629 78.9254C756.354 78.8831 755.74 78.6613 755.923 78.5943C755.71 78.6832 755.594 78.2124 755.257 78.1472C754.886 78.0954 755.128 78.0418 754.515 77.9709C754.174 77.6376 754.079 78.0255 753.833 77.5928C753.626 77.6265 753.214 77.3835 753.14 77.2649C752.618 77.1309 752.801 77.0018 752.475 76.8582C752.011 76.607 752.102 76.5625 751.8 76.4956C751.932 76.3193 751.56 76.2493 751.144 76.0791C750.916 75.896 750.374 75.814 750.476 75.7017C750.268 75.5493 750.046 75.4183 749.812 75.3108C749.658 75.1375 749.25 75.0794 749.143 74.9322C748.936 74.7535 748.699 74.6709 748.462 74.5856C748.225 74.5002 747.99 74.4113 747.784 74.2218C747.346 73.9271 746.836 73.8608 746.377 73.6127C745.923 73.3391 745.447 73.1252 744.905 73.1277C744.384 73.0894 743.873 72.9648 743.393 72.7589C742.857 72.7416 742.385 72.5151 741.863 72.4521C741.357 72.3347 740.803 72.3725 740.327 72.1607C739.809 72.0822 739.283 72.0333 738.801 71.8377C738.305 71.6901 737.801 71.5672 737.3 71.435C736.81 71.2838 736.339 71.0738 735.828 70.9972C735.356 70.7945 734.84 70.7357 734.352 70.5884C733.861 70.453 733.352 70.3778 732.874 70.198C732.38 70.0705 731.886 69.9438 731.391 69.8179C730.4 69.5664 730.782 69.8337 729.515 69.6948C728.837 69.5173 728.847 69.6645 728.282 69.6128C727.782 69.6091 726.025 69.9369 725.234 70.7411C724.443 71.5452 724.394 72.464 724.708 74.0219C724.974 75.3461 726.96 76.9795 727.402 78.3848C727.844 79.79 727.743 83.2606 728.519 84.5991C729.822 86.8546 733.741 87.8539 736.159 88.9488C738.577 90.0437 741.102 88.7649 743.932 89.4261C746.735 90.0806 749.425 91.4106 751.928 92.3503C754.089 93.1612 755.764 94.2679 757.619 95.3774C759.473 96.487 761.813 97.1822 763.63 98.3721C765.58 99.6485 767.267 100.972 769.306 101.908C771.345 102.843 773.515 103.592 775.858 104.247C778.22 104.905 780.658 105.056 782.908 105.815C785.158 106.573 787.109 108.077 789.354 109.083C791.578 110.078 794.005 110.716 796.224 111.696C798.443 112.675 800.676 113.505 802.992 114.335C805.172 115.116 807.113 116.775 809.333 117.449C811.554 118.123 814.034 117.572 816.253 118.202C819.68 119.175 823.968 120.859 827.069 120.168C830.09 119.501 830.107 117.248 830.377 115.152C830.496 114.221 831.04 113.357 831.421 112.441C831.621 111.987 831.747 111.505 831.796 111.012C831.9 110.388 831.773 110.188 831.63 109.856C831.483 109.537 831.334 109.039 831.132 108.659C830.997 108.068 830.658 108.084 830.543 107.461C830.429 106.839 830.188 106.703 830.1 106.299C830.04 105.64 829.834 105.411 829.653 105.027C829.48 104.658 829.266 104.309 829.017 103.987C828.772 103.668 828.529 103.26 828.177 103.101C827.824 102.942 827.5 102.583 827.112 102.309C826.749 101.951 826.245 101.926 825.803 101.551C825.442 101.249 824.976 101.273 824.616 100.937C824.199 100.771 823.794 100.576 823.404 100.353C822.976 100.213 822.621 99.8202 822.144 99.8052C821.697 99.6709 821.259 99.505 820.835 99.3087C820.373 99.2079 819.997 98.8084 819.47 98.8767C819.037 98.639 818.49 98.7461 818.039 98.5226C817.538 98.4756 817.043 98.38 816.56 98.2373C816.096 98.0648 815.556 98.1517 815.097 98.0009C814.616 97.9211 814.165 97.7606 813.664 97.7991C813.194 97.7314 812.778 97.5202 812.276 97.6157C811.784 97.6766 811.399 97.4302 810.945 97.437C810.472 97.5083 810.144 97.1498 809.689 97.2449C809.291 96.791 809.162 97.149 808.927 97.128C808.784 97.1613 808.601 96.8313 808.166 97.0203C807.86 97.0092 807.655 97.1028 807.346 97.1164C807.385 97.0077 806.717 97.1493 806.644 96.8372C806.315 96.4787 806.186 96.9354 805.865 96.8085C805.428 96.9828 805.296 96.5313 805.12 96.6684C804.893 96.4008 804.524 97.1078 804.353 96.5939C804.211 96.4451 803.88 96.5107 803.592 96.4861C803.402 96.582 803.132 96.2591 802.835 96.3554C802.614 96.2097 802.34 96.2281 802.06 96.2636C801.8 96.2361 801.518 96.2787 801.295 96.1261C801.053 96.0389 800.715 96.2498 800.523 96.0045C800.303 95.8416 799.997 95.9535 799.748 95.8812C799.495 95.8216 799.18 95.9648 798.979 95.7328C798.705 95.7379 798.486 95.5746 798.205 95.5924C797.982 95.4346 797.692 95.5012 797.432 95.449C797.075 95.4283 796.75 95.3033 796.402 95.254C796.061 95.1814 795.706 95.1553 795.375 95.0554C795.057 94.9118 794.709 94.8669 794.354 94.8532C793.794 94.9121 793.35 94.5438 792.828 94.4173C792.354 94.1277 791.828 93.9894 791.317 93.7968C790.814 93.5745 790.263 93.4988 789.812 93.1011C789.311 92.8694 788.817 92.6174 788.308 92.4334C787.819 92.1851 787.284 92.1013 786.793 91.9066C786.546 91.8189 786.294 91.7526 786.043 91.6845C785.802 91.5846 785.488 91.7279 785.29 91.4879C784.863 91.1175 784.342 91.0748 783.81 91.0577C783.312 90.9335 782.835 90.7416 782.341 90.6007C781.85 90.4354 781.36 90.2865 780.87 90.1021C780.345 90.0109 779.842 89.8199 779.389 89.5396Z" fill="#464C68"/>
</g>
<path d="M171 271.008C187.569 271.008 201 257.576 201 241.008C201 224.439 187.569 211.008 171 211.008C154.431 211.008 141 224.439 141 241.008C141 257.576 154.431 271.008 171 271.008Z" fill="#4F7D7B"/>
<mask id="mask4_1047_91959" style="mask-type:alpha" maskUnits="userSpaceOnUse" x="141" y="211" width="60" height="61">
<path d="M171.1 271.047C154.587 271.047 141.2 257.605 141.2 241.024C141.2 224.442 154.587 211 171.1 211C187.613 211 201 224.442 201 241.024C201 257.605 187.613 271.047 171.1 271.047Z" fill="#437C94"/>
</mask>
<g mask="url(#mask4_1047_91959)">
<path d="M135.932 212.939C152.308 212.032 165.346 219.953 177.709 229.444C180.729 231.763 183.243 234.449 186.32 236.712C190.218 239.58 195.268 241.722 199.899 243.172C209.483 246.17 223.816 243.965 228.398 233.948C230.861 228.566 229.56 222.221 227.195 217.053C227.068 216.776 226.943 216.49 226.818 216.2C226.694 215.909 226.571 215.609 226.448 215.308C226.327 214.673 226.204 214.398 226.077 214.346C225.954 214.05 225.824 214.272 225.701 213.453C225.572 213.479 225.446 212.877 225.318 212.556C225.188 212.129 225.053 212.073 224.919 211.558C224.78 211.531 224.642 211.109 224.499 210.693C224.359 209.965 224.213 209.717 224.056 209.694C223.903 209.497 223.747 209.121 223.584 208.868C223.42 208.58 223.251 208.473 223.077 207.935C222.904 207.396 222.72 207.409 222.531 207.229C222.339 206.857 222.145 206.652 221.943 206.351C221.716 206.11 221.503 205.856 221.305 205.591C221.084 205.32 220.855 205.08 220.614 205.015C220.11 204.665 219.579 204.215 219.024 203.857C214.578 200.985 208.606 199.842 203.566 198.851C198.74 197.901 193.788 197.566 188.934 196.78C183.087 195.831 177.976 193.131 172.286 191.803C165.76 190.283 158.472 192.145 151.841 192.507C147.278 192.756 142.807 193.655 138.398 194.814C133.074 196.212 130.088 198.049 130.632 203.789C131.016 207.866 133.953 209.645 135.932 212.939Z" fill="#467173"/>
<path d="M208.856 309.229C193.1 304.647 183.394 292.839 174.841 279.774C172.751 276.583 171.261 273.212 169.099 270.054C166.361 266.052 162.298 262.353 158.402 259.446C150.341 253.433 136.088 250.754 128.474 258.687C124.383 262.949 123.527 269.37 124.063 275.033C124.091 275.338 124.115 275.649 124.138 275.964C124.16 276.28 124.177 276.604 124.195 276.929C124.1 277.568 124.126 277.87 124.229 277.961C124.248 278.281 124.443 278.114 124.29 278.928C124.42 278.946 124.342 279.556 124.358 279.902C124.34 280.348 124.449 280.446 124.407 280.977C124.529 281.048 124.521 281.492 124.519 281.933C124.413 282.666 124.468 282.949 124.609 283.022C124.689 283.26 124.713 283.666 124.784 283.959C124.844 284.285 124.968 284.443 124.955 285.008C124.942 285.574 125.12 285.623 125.239 285.856C125.299 286.271 125.414 286.528 125.506 286.88C125.641 287.183 125.759 287.493 125.858 287.809C125.979 288.138 126.116 288.441 126.322 288.582C126.683 289.08 127.036 289.682 127.443 290.203C130.696 294.391 135.958 297.453 140.389 300.063C144.634 302.562 149.197 304.524 153.521 306.878C158.729 309.716 162.667 313.962 167.601 317.105C173.262 320.708 180.753 321.37 187.13 323.231C191.519 324.511 196.035 325.148 200.577 325.518C206.061 325.967 209.483 325.225 210.854 319.627C211.83 315.651 209.641 312.996 208.856 309.229Z" fill="#467173"/>
<path d="M173.456 209.309C172.983 209.094 172.496 208.95 172.036 208.731C171.615 208.381 171.141 208.22 170.643 208.139C170.198 207.891 169.648 207.99 169.272 207.528C169.056 207.401 168.83 207.292 168.596 207.202C168.348 207.156 168.115 207.051 167.915 206.896C167.687 206.801 167.437 206.773 167.229 206.621C166.96 206.655 166.838 206.21 166.57 206.242C166.301 206.274 166.049 206.253 165.897 205.905C165.624 205.948 165.474 205.593 165.223 205.561C164.77 205.343 164.367 204.964 163.876 204.868C163.415 204.678 163.018 204.276 162.53 204.175C162.058 204.023 161.644 203.681 161.186 203.481C160.735 203.247 160.307 202.959 159.843 202.781C159.65 202.566 159.42 202.474 159.185 202.396C158.95 202.318 158.712 202.249 158.507 202.075C158.303 201.917 158.086 201.777 157.86 201.655C157.701 201.528 157.519 201.675 157.177 201.355C157.188 201.421 156.651 201.059 156.532 200.913C155.993 201.051 156.066 200.979 155.816 200.672C155.58 200.586 155.321 200.333 155.149 200.251C155.01 200.199 154.779 200.421 154.406 200.053C154.035 200.006 153.77 199.344 153.694 199.743C153.838 199.689 153.749 199.395 152.968 199.47C152.846 199.004 152.503 199.15 152.258 199.142C152.055 198.958 152.259 198.849 151.521 198.9C151.401 198.915 150.92 198.804 150.789 198.647C150.515 198.604 149.904 198.381 150.086 198.314C149.875 198.403 149.759 197.93 149.423 197.865C149.054 197.813 149.295 197.759 148.684 197.688C148.344 197.353 148.25 197.743 148.005 197.308C147.799 197.342 147.389 197.098 147.315 196.979C146.795 196.844 146.977 196.714 146.653 196.57C146.19 196.318 146.281 196.273 145.98 196.206C146.112 196.029 145.741 195.958 145.326 195.788C145.099 195.604 144.56 195.521 144.661 195.408C144.455 195.255 144.233 195.124 144 195.016C143.847 194.842 143.44 194.783 143.334 194.635C143.128 194.456 142.892 194.373 142.656 194.287C142.42 194.201 142.185 194.112 141.98 193.922C141.545 193.626 141.036 193.559 140.579 193.31C140.127 193.035 139.653 192.82 139.113 192.823C138.594 192.784 138.085 192.659 137.608 192.452C137.073 192.435 136.604 192.207 136.083 192.144C135.58 192.026 135.028 192.064 134.554 191.851C134.039 191.773 133.514 191.723 133.035 191.527C132.54 191.379 132.039 191.255 131.54 191.122C131.051 190.971 130.583 190.76 130.074 190.683C129.603 190.479 129.089 190.42 128.604 190.272C128.114 190.136 127.607 190.06 127.131 189.88C126.64 189.752 126.147 189.625 125.654 189.498C124.668 189.245 125.048 189.514 123.786 189.374C123.111 189.196 123.121 189.344 122.558 189.292C122.06 189.288 120.31 189.618 119.522 190.425C118.735 191.233 118.686 192.156 118.998 193.721C119.264 195.051 121.241 196.692 121.682 198.104C122.122 199.515 122.021 203.001 122.794 204.346C124.092 206.612 127.995 207.615 130.403 208.715C132.811 209.815 135.326 208.531 138.144 209.195C140.936 209.852 143.615 211.188 146.108 212.132C148.26 212.947 149.928 214.058 151.775 215.173C153.622 216.288 155.952 216.986 157.762 218.181C159.704 219.463 161.384 220.793 163.415 221.733C165.445 222.672 167.607 223.425 169.94 224.082C172.293 224.743 174.72 224.896 176.961 225.657C179.202 226.419 181.145 227.929 183.381 228.941C185.596 229.94 188.013 230.581 190.223 231.565C192.432 232.548 194.657 233.383 196.964 234.216C199.134 235.001 201.067 236.668 203.279 237.345C205.49 238.022 207.96 237.467 210.17 238.1C213.583 239.078 217.854 240.77 220.942 240.076C223.95 239.406 223.968 237.142 224.236 235.037C224.355 234.102 224.897 233.234 225.277 232.314C225.475 231.858 225.601 231.373 225.65 230.878C225.753 230.252 225.626 230.051 225.484 229.717C225.337 229.396 225.189 228.896 224.989 228.515C224.854 227.921 224.516 227.936 224.402 227.311C224.288 226.686 224.049 226.55 223.961 226.144C223.901 225.482 223.695 225.251 223.515 224.866C223.343 224.496 223.13 224.145 222.882 223.821C222.638 223.501 222.396 223.091 222.045 222.931C221.694 222.771 221.372 222.411 220.985 222.136C220.624 221.777 220.121 221.751 219.681 221.375C219.322 221.071 218.858 221.095 218.499 220.758C218.083 220.591 217.68 220.395 217.292 220.171C216.865 220.03 216.512 219.636 216.037 219.621C215.592 219.486 215.156 219.319 214.734 219.122C214.273 219.021 213.899 218.619 213.373 218.688C212.943 218.449 212.398 218.557 211.948 218.332C211.449 218.285 210.956 218.189 210.476 218.046C210.013 217.872 209.476 217.96 209.019 217.808C208.54 217.728 208.091 217.567 207.592 217.606C207.124 217.538 206.709 217.325 206.209 217.421C205.72 217.482 205.336 217.235 204.884 217.242C204.413 217.313 204.086 216.953 203.632 217.049C203.237 216.593 203.108 216.953 202.874 216.931C202.731 216.965 202.549 216.633 202.117 216.823C201.812 216.812 201.608 216.906 201.3 216.92C201.338 216.811 200.673 216.953 200.6 216.639C200.273 216.279 200.144 216.738 199.824 216.61C199.389 216.786 199.258 216.332 199.082 216.47C198.857 216.201 198.489 216.911 198.318 216.395C198.177 216.245 197.847 216.311 197.561 216.287C197.372 216.383 197.102 216.059 196.807 216.155C196.586 216.009 196.314 216.027 196.035 216.063C195.776 216.036 195.495 216.078 195.274 215.925C195.032 215.837 194.696 216.049 194.505 215.803C194.285 215.639 193.981 215.752 193.732 215.679C193.48 215.619 193.167 215.763 192.966 215.53C192.693 215.535 192.475 215.371 192.196 215.389C191.973 215.23 191.685 215.297 191.426 215.245C191.07 215.224 190.746 215.099 190.4 215.049C190.061 214.976 189.707 214.95 189.377 214.85C189.061 214.705 188.714 214.66 188.36 214.646C187.802 214.706 187.361 214.336 186.84 214.208C186.369 213.918 185.845 213.779 185.336 213.585C184.834 213.362 184.286 213.286 183.837 212.886C183.338 212.654 182.846 212.4 182.339 212.216C181.852 211.966 181.319 211.882 180.831 211.687C180.585 211.598 180.333 211.532 180.083 211.463C179.843 211.363 179.53 211.507 179.334 211.266C178.908 210.894 178.389 210.851 177.86 210.834C177.364 210.709 176.889 210.516 176.396 210.375C175.908 210.209 175.419 210.059 174.931 209.874C174.408 209.782 173.908 209.59 173.456 209.309Z" fill="#315357"/>
</g>
<path d="M575 191.008C591.569 191.008 605 177.576 605 161.008C605 144.439 591.569 131.008 575 131.008C558.431 131.008 545 144.439 545 161.008C545 177.576 558.431 191.008 575 191.008Z" fill="#4F7D7B"/>
<mask id="mask5_1047_91959" style="mask-type:alpha" maskUnits="userSpaceOnUse" x="545" y="131" width="60" height="61">
<path d="M575.1 191.047C558.587 191.047 545.2 177.605 545.2 161.024C545.2 144.442 558.587 131 575.1 131C591.613 131 605 144.442 605 161.024C605 177.605 591.613 191.047 575.1 191.047Z" fill="#437C94"/>
</mask>
<g mask="url(#mask5_1047_91959)">
<path d="M539.932 132.939C556.308 132.032 569.346 139.953 581.709 149.444C584.729 151.763 587.243 154.449 590.32 156.712C594.218 159.58 599.268 161.722 603.899 163.172C613.483 166.17 627.816 163.965 632.398 153.948C634.861 148.566 633.56 142.221 631.195 137.053C631.068 136.776 630.943 136.49 630.818 136.2C630.694 135.909 630.571 135.609 630.448 135.308C630.327 134.673 630.204 134.398 630.077 134.346C629.954 134.05 629.824 134.272 629.701 133.453C629.572 133.479 629.446 132.877 629.318 132.556C629.188 132.129 629.053 132.073 628.919 131.558C628.78 131.531 628.642 131.109 628.499 130.693C628.359 129.965 628.213 129.717 628.056 129.694C627.903 129.497 627.747 129.121 627.584 128.868C627.42 128.58 627.251 128.473 627.077 127.935C626.904 127.396 626.72 127.409 626.531 127.229C626.339 126.857 626.145 126.652 625.943 126.351C625.716 126.11 625.503 125.856 625.305 125.591C625.084 125.32 624.855 125.08 624.614 125.015C624.11 124.665 623.579 124.215 623.024 123.857C618.578 120.985 612.606 119.842 607.566 118.851C602.74 117.901 597.788 117.566 592.934 116.78C587.087 115.831 581.976 113.131 576.286 111.803C569.76 110.283 562.472 112.145 555.841 112.507C551.278 112.756 546.807 113.655 542.398 114.814C537.074 116.212 534.088 118.049 534.632 123.789C535.016 127.866 537.953 129.645 539.932 132.939Z" fill="#467173"/>
<path d="M612.856 229.229C597.1 224.647 587.394 212.839 578.841 199.774C576.751 196.583 575.261 193.212 573.099 190.054C570.361 186.052 566.298 182.353 562.402 179.446C554.341 173.433 540.088 170.754 532.474 178.687C528.383 182.949 527.527 189.37 528.063 195.033C528.091 195.338 528.115 195.649 528.138 195.964C528.16 196.28 528.177 196.604 528.195 196.929C528.1 197.568 528.126 197.87 528.229 197.961C528.248 198.281 528.443 198.114 528.29 198.928C528.42 198.946 528.342 199.556 528.358 199.902C528.34 200.348 528.449 200.446 528.407 200.977C528.529 201.048 528.521 201.492 528.519 201.933C528.413 202.666 528.468 202.949 528.609 203.022C528.689 203.26 528.713 203.666 528.784 203.959C528.844 204.285 528.968 204.443 528.955 205.008C528.942 205.574 529.12 205.623 529.239 205.856C529.299 206.271 529.414 206.528 529.506 206.88C529.641 207.183 529.759 207.493 529.858 207.809C529.979 208.138 530.116 208.441 530.322 208.582C530.683 209.08 531.036 209.682 531.443 210.203C534.696 214.391 539.958 217.453 544.389 220.063C548.634 222.562 553.197 224.524 557.521 226.878C562.729 229.716 566.667 233.962 571.601 237.105C577.262 240.708 584.753 241.37 591.13 243.231C595.519 244.511 600.035 245.148 604.577 245.518C610.061 245.967 613.483 245.225 614.854 239.627C615.83 235.651 613.641 232.996 612.856 229.229Z" fill="#467173"/>
<path d="M577.456 129.309C576.983 129.094 576.496 128.95 576.036 128.731C575.615 128.381 575.141 128.22 574.643 128.139C574.198 127.891 573.648 127.99 573.272 127.528C573.056 127.401 572.83 127.292 572.596 127.202C572.348 127.156 572.115 127.051 571.915 126.896C571.687 126.801 571.437 126.773 571.229 126.621C570.96 126.655 570.838 126.21 570.57 126.242C570.301 126.274 570.049 126.253 569.897 125.905C569.624 125.948 569.474 125.593 569.223 125.561C568.77 125.343 568.367 124.964 567.876 124.868C567.415 124.678 567.018 124.276 566.53 124.175C566.058 124.023 565.644 123.681 565.186 123.481C564.735 123.247 564.307 122.959 563.843 122.781C563.65 122.566 563.42 122.474 563.185 122.396C562.95 122.318 562.712 122.249 562.507 122.075C562.303 121.917 562.086 121.777 561.86 121.655C561.701 121.528 561.519 121.675 561.177 121.355C561.188 121.421 560.651 121.059 560.532 120.913C559.993 121.051 560.066 120.979 559.816 120.672C559.58 120.586 559.321 120.333 559.149 120.251C559.01 120.199 558.779 120.421 558.406 120.053C558.035 120.006 557.77 119.344 557.694 119.743C557.838 119.689 557.749 119.395 556.968 119.47C556.846 119.004 556.503 119.15 556.258 119.142C556.055 118.958 556.259 118.849 555.521 118.9C555.401 118.915 554.92 118.804 554.789 118.647C554.515 118.604 553.904 118.381 554.086 118.314C553.875 118.403 553.759 117.93 553.423 117.865C553.054 117.813 553.295 117.759 552.684 117.688C552.344 117.353 552.25 117.743 552.005 117.308C551.799 117.342 551.389 117.098 551.315 116.979C550.795 116.844 550.977 116.714 550.653 116.57C550.19 116.318 550.281 116.273 549.98 116.206C550.112 116.029 549.741 115.958 549.326 115.788C549.099 115.604 548.56 115.521 548.661 115.408C548.455 115.255 548.233 115.124 548 115.016C547.847 114.842 547.44 114.783 547.334 114.635C547.128 114.456 546.892 114.373 546.656 114.287C546.42 114.201 546.185 114.112 545.98 113.922C545.545 113.626 545.036 113.559 544.579 113.31C544.127 113.035 543.653 112.82 543.113 112.823C542.594 112.784 542.085 112.659 541.608 112.452C541.073 112.435 540.604 112.207 540.083 112.144C539.58 112.026 539.028 112.064 538.554 111.851C538.039 111.773 537.514 111.723 537.035 111.527C536.54 111.379 536.039 111.255 535.54 111.122C535.051 110.971 534.583 110.76 534.074 110.683C533.603 110.479 533.089 110.42 532.604 110.272C532.114 110.136 531.607 110.06 531.131 109.88C530.64 109.752 530.147 109.625 529.654 109.498C528.668 109.245 529.048 109.514 527.786 109.374C527.111 109.196 527.121 109.344 526.558 109.292C526.06 109.288 524.31 109.618 523.522 110.425C522.735 111.233 522.686 112.156 522.998 113.721C523.264 115.051 525.241 116.692 525.682 118.104C526.122 119.515 526.021 123.001 526.794 124.346C528.092 126.612 531.995 127.615 534.403 128.715C536.811 129.815 539.326 128.531 542.144 129.195C544.936 129.852 547.615 131.188 550.108 132.132C552.26 132.947 553.928 134.058 555.775 135.173C557.622 136.288 559.952 136.986 561.762 138.181C563.704 139.463 565.384 140.793 567.415 141.733C569.445 142.672 571.607 143.425 573.94 144.082C576.293 144.743 578.72 144.896 580.961 145.657C583.202 146.419 585.145 147.929 587.381 148.941C589.596 149.94 592.013 150.581 594.223 151.565C596.432 152.548 598.657 153.383 600.964 154.216C603.134 155.001 605.067 156.668 607.279 157.345C609.49 158.022 611.96 157.467 614.17 158.1C617.583 159.078 621.854 160.77 624.942 160.076C627.95 159.406 627.968 157.142 628.236 155.037C628.355 154.102 628.897 153.234 629.277 152.314C629.475 151.858 629.601 151.373 629.65 150.878C629.753 150.252 629.626 150.051 629.484 149.717C629.337 149.396 629.189 148.896 628.989 148.515C628.854 147.921 628.516 147.936 628.402 147.311C628.288 146.686 628.049 146.55 627.961 146.144C627.901 145.482 627.695 145.251 627.515 144.866C627.343 144.496 627.13 144.145 626.882 143.821C626.638 143.501 626.396 143.091 626.045 142.931C625.694 142.771 625.372 142.411 624.985 142.136C624.624 141.777 624.121 141.751 623.681 141.375C623.322 141.071 622.858 141.095 622.499 140.758C622.083 140.591 621.68 140.395 621.292 140.171C620.865 140.03 620.512 139.636 620.037 139.621C619.592 139.486 619.156 139.319 618.734 139.122C618.273 139.021 617.899 138.619 617.373 138.688C616.943 138.449 616.398 138.557 615.948 138.332C615.449 138.285 614.956 138.189 614.476 138.046C614.013 137.872 613.476 137.96 613.019 137.808C612.54 137.728 612.091 137.567 611.592 137.606C611.124 137.538 610.709 137.325 610.209 137.421C609.72 137.482 609.336 137.235 608.884 137.242C608.413 137.313 608.086 136.953 607.632 137.049C607.237 136.593 607.108 136.953 606.874 136.931C606.731 136.965 606.549 136.633 606.117 136.823C605.812 136.812 605.608 136.906 605.3 136.92C605.338 136.811 604.673 136.953 604.6 136.639C604.273 136.279 604.144 136.738 603.824 136.61C603.389 136.786 603.258 136.332 603.082 136.47C602.857 136.201 602.489 136.911 602.318 136.395C602.177 136.245 601.847 136.311 601.561 136.287C601.372 136.383 601.102 136.059 600.807 136.155C600.586 136.009 600.314 136.027 600.035 136.063C599.776 136.036 599.495 136.078 599.274 135.925C599.032 135.837 598.696 136.049 598.505 135.803C598.285 135.639 597.981 135.752 597.732 135.679C597.48 135.619 597.167 135.763 596.966 135.53C596.693 135.535 596.475 135.371 596.196 135.389C595.973 135.23 595.685 135.297 595.426 135.245C595.07 135.224 594.746 135.099 594.4 135.049C594.061 134.976 593.707 134.95 593.377 134.85C593.061 134.705 592.714 134.66 592.36 134.646C591.802 134.706 591.361 134.336 590.84 134.208C590.369 133.918 589.845 133.779 589.336 133.585C588.834 133.362 588.286 133.286 587.837 132.886C587.338 132.654 586.846 132.4 586.339 132.216C585.852 131.966 585.319 131.882 584.831 131.687C584.585 131.598 584.333 131.532 584.083 131.463C583.843 131.363 583.53 131.507 583.334 131.266C582.908 130.894 582.389 130.851 581.86 130.834C581.364 130.709 580.889 130.516 580.396 130.375C579.908 130.209 579.419 130.059 578.931 129.874C578.408 129.782 577.908 129.59 577.456 129.309Z" fill="#315357"/>
</g>
<path d="M70 291C86.5685 291 100 277.569 100 261C100 244.431 86.5685 231 70 231C53.4315 231 40 244.431 40 261C40 277.569 53.4315 291 70 291Z" fill="#4C825C"/>
<mask id="mask6_1047_91959" style="mask-type:alpha" maskUnits="userSpaceOnUse" x="40" y="231" width="61" height="61">
<path d="M70.0225 291.047C86.6034 291.047 100.045 277.605 100.045 261.024C100.045 244.442 86.6034 231 70.0225 231C53.4415 231 40 244.442 40 261.024C40 277.605 53.4415 291.047 70.0225 291.047Z" fill="#437C94"/>
</mask>
<g mask="url(#mask6_1047_91959)">
<path d="M105.335 232.939C88.8918 232.032 75.7996 239.953 63.3865 249.444C60.354 251.763 57.83 254.449 54.7403 256.712C50.8264 259.58 45.7557 261.722 41.105 263.172C31.4821 266.17 17.0905 263.965 12.4893 253.948C10.0168 248.566 11.3228 242.221 13.6978 237.053C13.825 236.776 13.9503 236.49 14.0754 236.2C14.2006 235.909 14.3237 235.609 14.4478 235.308C14.5684 234.673 14.6927 234.398 14.8197 234.346C14.9439 234.05 15.0739 234.272 15.197 233.453C15.3265 233.479 15.4533 232.877 15.5821 232.556C15.7122 232.129 15.8479 232.073 15.9831 231.558C16.1221 231.531 16.2609 231.109 16.4047 230.693C16.5452 229.965 16.6913 229.717 16.8489 229.694C17.0031 229.497 17.16 229.121 17.3237 228.868C17.488 228.58 17.6577 228.473 17.8319 227.935C18.0062 227.396 18.1905 227.409 18.3802 227.229C18.5733 226.857 18.7677 226.652 18.9712 226.351C19.1987 226.11 19.4124 225.856 19.6111 225.591C19.8334 225.32 20.0638 225.08 20.3053 225.015C20.8111 224.665 21.3446 224.215 21.9023 223.857C26.3659 220.985 32.3621 219.842 37.4228 218.851C42.2693 217.901 47.241 217.566 52.1152 216.78C57.9865 215.831 63.1185 213.131 68.8312 211.803C75.384 210.283 82.7021 212.145 89.3603 212.507C93.9415 212.756 98.4317 213.655 102.858 214.814C108.204 216.212 111.203 218.049 110.656 223.789C110.271 227.866 107.321 229.645 105.335 232.939Z" fill="#467553"/>
<path d="M32.1118 329.227C47.9317 324.645 57.6782 312.838 66.266 299.772C68.364 296.581 69.8607 293.21 72.0311 290.052C74.7801 286.05 78.8602 282.351 82.7721 279.445C90.8666 273.431 105.178 270.752 112.823 278.685C116.931 282.947 117.79 289.368 117.252 295.032C117.223 295.336 117.199 295.647 117.177 295.962C117.155 296.278 117.137 296.602 117.119 296.927C117.215 297.566 117.188 297.868 117.086 297.959C117.066 298.279 116.87 298.112 117.024 298.926C116.893 298.944 116.972 299.554 116.956 299.9C116.974 300.346 116.864 300.444 116.907 300.975C116.784 301.046 116.792 301.49 116.794 301.931C116.901 302.664 116.845 302.947 116.704 303.02C116.623 303.258 116.599 303.664 116.528 303.957C116.468 304.283 116.343 304.441 116.356 305.006C116.369 305.572 116.191 305.621 116.071 305.854C116.011 306.269 115.895 306.526 115.803 306.878C115.667 307.181 115.549 307.491 115.449 307.807C115.329 308.136 115.19 308.439 114.984 308.58C114.622 309.078 114.267 309.68 113.858 310.201C110.592 314.389 105.309 317.451 100.859 320.061C96.597 322.56 92.0149 324.522 87.6732 326.876C82.4441 329.714 78.49 333.96 73.5355 337.103C67.8516 340.706 60.3299 341.368 53.926 343.229C49.5196 344.51 44.9851 345.146 40.4247 345.516C34.9174 345.965 31.482 345.223 30.1054 339.625C29.1253 335.649 31.3228 332.994 32.1118 329.227Z" fill="#467553"/>
<path d="M67.656 229.309C68.1316 229.094 68.6199 228.95 69.0825 228.731C69.5047 228.381 69.9814 228.22 70.4806 228.139C70.9281 227.891 71.4805 227.99 71.8573 227.528C72.0745 227.401 72.3017 227.292 72.5365 227.202C72.7852 227.156 73.0193 227.051 73.22 226.896C73.4492 226.801 73.6999 226.773 73.9091 226.621C74.1791 226.655 74.3012 226.21 74.5712 226.242C74.8412 226.274 75.0939 226.253 75.2467 225.905C75.5202 225.948 75.6712 225.593 75.9232 225.561C76.3783 225.343 76.783 224.964 77.276 224.868C77.7391 224.678 78.1371 224.276 78.6268 224.175C79.1016 224.023 79.517 223.681 79.9763 223.481C80.4299 223.247 80.8596 222.959 81.3257 222.781C81.5194 222.566 81.7502 222.474 81.9863 222.396C82.2224 222.318 82.4612 222.249 82.6668 222.075C82.8718 221.917 83.0892 221.777 83.3167 221.655C83.4757 221.528 83.659 221.675 84.0024 221.355C83.9916 221.421 84.5303 221.059 84.6499 220.913C85.1912 221.051 85.1178 220.979 85.3685 220.672C85.6059 220.586 85.8659 220.333 86.039 220.251C86.1777 220.199 86.4096 220.421 86.7844 220.053C87.1572 220.006 87.4228 219.344 87.4993 219.743C87.355 219.689 87.4446 219.395 88.2289 219.47C88.3512 219.004 88.6953 219.15 88.9418 219.142C89.1451 218.958 88.9404 218.849 89.6817 218.9C89.8023 218.915 90.2853 218.804 90.4164 218.647C90.6913 218.604 91.3053 218.381 91.122 218.314C91.3346 218.403 91.451 217.93 91.7877 217.865C92.1587 217.813 91.9168 217.759 92.5297 217.688C92.8714 217.353 92.9662 217.743 93.2121 217.308C93.4185 217.342 93.8308 217.098 93.9048 216.979C94.4268 216.844 94.2443 216.714 94.5698 216.57C95.0338 216.318 94.9426 216.273 95.2447 216.206C95.1126 216.029 95.4849 215.958 95.9013 215.788C96.1294 215.604 96.6707 215.521 96.5693 215.408C96.7767 215.255 96.9991 215.124 97.2331 215.016C97.3868 214.842 97.7954 214.783 97.9022 214.635C98.1085 214.456 98.3461 214.373 98.5829 214.287C98.8196 214.201 99.0553 214.112 99.2613 213.922C99.6986 213.626 100.209 213.559 100.668 213.31C101.122 213.035 101.598 212.82 102.14 212.823C102.661 212.784 103.172 212.659 103.652 212.452C104.188 212.435 104.66 212.207 105.182 212.144C105.688 212.026 106.242 212.064 106.718 211.851C107.236 211.773 107.762 211.723 108.244 211.527C108.74 211.379 109.244 211.255 109.745 211.122C110.235 210.971 110.706 210.76 111.217 210.683C111.689 210.479 112.205 210.42 112.693 210.272C113.184 210.136 113.693 210.06 114.171 209.88C114.665 209.752 115.159 209.625 115.654 209.498C116.645 209.245 116.263 209.514 117.53 209.374C118.208 209.196 118.197 209.344 118.763 209.292C119.263 209.288 121.02 209.618 121.811 210.425C122.602 211.233 122.651 212.156 122.337 213.721C122.071 215.051 120.085 216.692 119.643 218.104C119.201 219.515 119.302 223.001 118.526 224.346C117.223 226.612 113.304 227.615 110.886 228.715C108.468 229.815 105.943 228.531 103.113 229.195C100.31 229.852 97.6201 231.188 95.1167 232.132C92.9558 232.947 91.2808 234.058 89.4262 235.173C87.5716 236.288 85.2324 236.986 83.4151 238.181C81.4652 239.463 79.7778 240.793 77.7391 241.733C75.7004 242.672 73.5296 243.425 71.187 244.082C68.8247 244.743 66.3872 244.896 64.1372 245.657C61.8871 246.419 59.9358 247.929 57.6908 248.941C55.467 249.94 53.0396 250.581 50.821 251.565C48.6024 252.548 46.3685 253.383 44.0525 254.216C41.8731 255.001 39.932 256.668 37.7116 257.345C35.4911 258.022 33.0111 257.467 30.7919 258.1C27.3652 259.078 23.0767 260.77 19.9759 260.076C16.9554 259.406 16.9375 257.142 16.6682 255.037C16.5489 254.102 16.0044 253.234 15.6235 252.314C15.4242 251.858 15.2979 251.373 15.249 250.878C15.1452 250.252 15.2722 250.051 15.4153 249.717C15.5624 249.396 15.7114 248.896 15.9126 248.515C16.048 247.921 16.3874 247.936 16.5017 247.311C16.616 246.686 16.8565 246.55 16.9448 246.144C17.0051 245.482 17.2111 245.251 17.3918 244.866C17.5652 244.496 17.7787 244.145 18.0282 243.821C18.2731 243.501 18.5157 243.091 18.8682 242.931C19.2207 242.771 19.5445 242.411 19.9325 242.136C20.2954 241.777 20.8 241.751 21.2421 241.375C21.6028 241.071 22.0686 241.095 22.4289 240.758C22.8463 240.591 23.2513 240.395 23.6411 240.171C24.0693 240.03 24.4236 239.636 24.9005 239.621C25.3482 239.486 25.7857 239.319 26.2097 239.122C26.6717 239.021 27.0479 238.619 27.5754 238.688C28.008 238.449 28.5546 238.557 29.0063 238.332C29.5072 238.285 30.0024 238.189 30.4848 238.046C30.9492 237.872 31.4887 237.96 31.9475 237.808C32.4291 237.728 32.8795 237.567 33.3807 237.606C33.8506 237.538 34.2674 237.325 34.7693 237.421C35.2605 237.482 35.6462 237.235 36.0997 237.242C36.5724 237.313 36.901 236.953 37.3563 237.049C37.7536 236.593 37.8825 236.953 38.1183 236.931C38.261 236.965 38.4443 236.633 38.8784 236.823C39.1847 236.812 39.3895 236.906 39.6988 236.92C39.6604 236.811 40.3283 236.953 40.4011 236.639C40.7296 236.279 40.8589 236.738 41.1803 236.61C41.6169 236.786 41.7486 236.332 41.925 236.47C42.1517 236.201 42.5213 236.911 42.6924 236.395C42.8344 236.245 43.1652 236.311 43.4526 236.287C43.6426 236.383 43.9132 236.059 44.2095 236.155C44.4314 236.009 44.705 236.027 44.9854 236.063C45.2448 236.036 45.5274 236.078 45.7495 235.925C45.9919 235.837 46.3298 236.049 46.5216 235.803C46.742 235.639 47.0477 235.752 47.2971 235.679C47.5503 235.619 47.865 235.763 48.0663 235.53C48.3404 235.535 48.5592 235.371 48.8395 235.389C49.0631 235.23 49.3532 235.297 49.6126 235.245C49.9701 235.224 50.2952 235.099 50.643 235.049C50.9836 234.976 51.3386 234.95 51.67 234.85C51.9878 234.705 52.3362 234.66 52.6912 234.646C53.2514 234.706 53.6946 234.336 54.2174 234.208C54.6904 233.918 55.2166 233.779 55.7282 233.585C56.2314 233.362 56.7824 233.286 57.2327 232.886C57.7337 232.654 58.2277 232.4 58.7366 232.216C59.2263 231.966 59.7608 231.882 60.2517 231.687C60.4985 231.598 60.7513 231.532 61.0019 231.463C61.2434 231.363 61.5573 231.507 61.7546 231.266C62.1817 230.894 62.7034 230.851 63.2346 230.834C63.7326 230.709 64.2096 230.516 64.704 230.375C65.1947 230.209 65.685 230.059 66.1752 229.874C66.7004 229.782 67.2031 229.59 67.656 229.309Z" fill="#33553C"/>
</g>
<path d="M474 211C490.569 211 504 197.569 504 181C504 164.431 490.569 151 474 151C457.431 151 444 164.431 444 181C444 197.569 457.431 211 474 211Z" fill="#4C825C"/>
<mask id="mask7_1047_91959" style="mask-type:alpha" maskUnits="userSpaceOnUse" x="444" y="151" width="61" height="61">
<path d="M474.022 211.047C490.603 211.047 504.045 197.605 504.045 181.024C504.045 164.442 490.603 151 474.022 151C457.442 151 444 164.442 444 181.024C444 197.605 457.442 211.047 474.022 211.047Z" fill="#437C94"/>
</mask>
<g mask="url(#mask7_1047_91959)">
<path d="M509.335 152.939C492.892 152.032 479.8 159.953 467.386 169.444C464.354 171.763 461.83 174.449 458.74 176.712C454.826 179.58 449.756 181.722 445.105 183.172C435.482 186.17 421.091 183.965 416.489 173.948C414.017 168.566 415.323 162.221 417.698 157.053C417.825 156.776 417.95 156.49 418.075 156.2C418.201 155.909 418.324 155.609 418.448 155.308C418.568 154.673 418.693 154.398 418.82 154.346C418.944 154.05 419.074 154.272 419.197 153.453C419.327 153.479 419.453 152.877 419.582 152.556C419.712 152.129 419.848 152.073 419.983 151.558C420.122 151.531 420.261 151.109 420.405 150.693C420.545 149.965 420.691 149.717 420.849 149.694C421.003 149.497 421.16 149.121 421.324 148.868C421.488 148.58 421.658 148.473 421.832 147.935C422.006 147.396 422.19 147.409 422.38 147.229C422.573 146.857 422.768 146.652 422.971 146.351C423.199 146.11 423.412 145.856 423.611 145.591C423.833 145.32 424.064 145.08 424.305 145.015C424.811 144.665 425.345 144.215 425.902 143.857C430.366 140.985 436.362 139.842 441.423 138.851C446.269 137.901 451.241 137.566 456.115 136.78C461.986 135.831 467.119 133.131 472.831 131.803C479.384 130.283 486.702 132.145 493.36 132.507C497.942 132.756 502.432 133.655 506.858 134.814C512.204 136.212 515.203 138.049 514.656 143.789C514.271 147.866 511.321 149.645 509.335 152.939Z" fill="#467553"/>
<path d="M436.112 249.227C451.932 244.645 461.678 232.838 470.266 219.772C472.364 216.581 473.861 213.21 476.031 210.052C478.78 206.05 482.86 202.351 486.772 199.445C494.867 193.431 509.178 190.752 516.823 198.685C520.931 202.947 521.79 209.368 521.252 215.032C521.223 215.336 521.199 215.647 521.177 215.962C521.155 216.278 521.137 216.602 521.119 216.927C521.215 217.566 521.188 217.868 521.086 217.959C521.066 218.279 520.87 218.112 521.024 218.926C520.893 218.944 520.972 219.554 520.956 219.9C520.974 220.346 520.864 220.444 520.907 220.975C520.784 221.046 520.792 221.49 520.794 221.931C520.901 222.664 520.845 222.947 520.704 223.02C520.623 223.258 520.599 223.664 520.528 223.957C520.468 224.283 520.343 224.441 520.356 225.006C520.369 225.572 520.191 225.621 520.071 225.854C520.011 226.269 519.895 226.526 519.803 226.878C519.667 227.181 519.549 227.491 519.449 227.807C519.329 228.136 519.19 228.439 518.984 228.58C518.622 229.078 518.267 229.68 517.858 230.201C514.592 234.389 509.309 237.451 504.859 240.061C500.597 242.56 496.015 244.522 491.673 246.876C486.444 249.714 482.49 253.96 477.536 257.103C471.852 260.706 464.33 261.368 457.926 263.229C453.52 264.51 448.985 265.146 444.425 265.516C438.917 265.965 435.482 265.223 434.105 259.625C433.125 255.649 435.323 252.994 436.112 249.227Z" fill="#467553"/>
<path d="M471.656 149.309C472.132 149.094 472.62 148.95 473.083 148.731C473.505 148.381 473.981 148.22 474.481 148.139C474.928 147.891 475.481 147.99 475.857 147.528C476.075 147.401 476.302 147.292 476.537 147.202C476.785 147.156 477.019 147.051 477.22 146.896C477.449 146.801 477.7 146.773 477.909 146.621C478.179 146.655 478.301 146.21 478.571 146.242C478.841 146.274 479.094 146.253 479.247 145.905C479.52 145.948 479.671 145.593 479.923 145.561C480.378 145.343 480.783 144.964 481.276 144.868C481.739 144.678 482.137 144.276 482.627 144.175C483.102 144.023 483.517 143.681 483.976 143.481C484.43 143.247 484.86 142.959 485.326 142.781C485.519 142.566 485.75 142.474 485.986 142.396C486.222 142.318 486.461 142.249 486.667 142.075C486.872 141.917 487.089 141.777 487.317 141.655C487.476 141.528 487.659 141.675 488.002 141.355C487.992 141.421 488.53 141.059 488.65 140.913C489.191 141.051 489.118 140.979 489.368 140.672C489.606 140.586 489.866 140.333 490.039 140.251C490.178 140.199 490.41 140.421 490.784 140.053C491.157 140.006 491.423 139.344 491.499 139.743C491.355 139.689 491.445 139.395 492.229 139.47C492.351 139.004 492.695 139.15 492.942 139.142C493.145 138.958 492.94 138.849 493.682 138.9C493.802 138.915 494.285 138.804 494.416 138.647C494.691 138.604 495.305 138.381 495.122 138.314C495.335 138.403 495.451 137.93 495.788 137.865C496.159 137.813 495.917 137.759 496.53 137.688C496.871 137.353 496.966 137.743 497.212 137.308C497.418 137.342 497.831 137.098 497.905 136.979C498.427 136.844 498.244 136.714 498.57 136.57C499.034 136.318 498.943 136.273 499.245 136.206C499.113 136.029 499.485 135.958 499.901 135.788C500.129 135.604 500.671 135.521 500.569 135.408C500.777 135.255 500.999 135.124 501.233 135.016C501.387 134.842 501.795 134.783 501.902 134.635C502.108 134.456 502.346 134.373 502.583 134.287C502.82 134.201 503.055 134.112 503.261 133.922C503.699 133.626 504.209 133.559 504.668 133.31C505.122 133.035 505.598 132.82 506.14 132.823C506.661 132.784 507.172 132.659 507.652 132.452C508.188 132.435 508.66 132.207 509.182 132.144C509.688 132.026 510.242 132.064 510.718 131.851C511.236 131.773 511.762 131.723 512.244 131.527C512.74 131.379 513.244 131.255 513.745 131.122C514.235 130.971 514.706 130.76 515.217 130.683C515.689 130.479 516.205 130.42 516.693 130.272C517.184 130.136 517.693 130.06 518.171 129.88C518.665 129.752 519.159 129.625 519.654 129.498C520.645 129.245 520.263 129.514 521.53 129.374C522.208 129.196 522.197 129.344 522.763 129.292C523.263 129.288 525.02 129.618 525.811 130.425C526.602 131.233 526.651 132.156 526.337 133.721C526.071 135.051 524.085 136.692 523.643 138.104C523.201 139.515 523.302 143.001 522.526 144.346C521.223 146.612 517.304 147.615 514.886 148.715C512.468 149.815 509.943 148.531 507.113 149.195C504.31 149.852 501.62 151.188 499.117 152.132C496.956 152.947 495.281 154.058 493.426 155.173C491.572 156.288 489.232 156.986 487.415 158.181C485.465 159.463 483.778 160.793 481.739 161.733C479.7 162.672 477.53 163.425 475.187 164.082C472.825 164.743 470.387 164.896 468.137 165.657C465.887 166.419 463.936 167.929 461.691 168.941C459.467 169.94 457.04 170.581 454.821 171.565C452.602 172.548 450.369 173.383 448.053 174.216C445.873 175.001 443.932 176.668 441.712 177.345C439.491 178.022 437.011 177.467 434.792 178.1C431.365 179.078 427.077 180.77 423.976 180.076C420.955 179.406 420.937 177.142 420.668 175.037C420.549 174.102 420.004 173.234 419.623 172.314C419.424 171.858 419.298 171.373 419.249 170.878C419.145 170.252 419.272 170.051 419.415 169.717C419.562 169.396 419.711 168.896 419.913 168.515C420.048 167.921 420.387 167.936 420.502 167.311C420.616 166.686 420.856 166.55 420.945 166.144C421.005 165.482 421.211 165.251 421.392 164.866C421.565 164.496 421.779 164.145 422.028 163.821C422.273 163.501 422.516 163.091 422.868 162.931C423.221 162.771 423.545 162.411 423.933 162.136C424.295 161.777 424.8 161.751 425.242 161.375C425.603 161.071 426.069 161.095 426.429 160.758C426.846 160.591 427.251 160.395 427.641 160.171C428.069 160.03 428.424 159.636 428.9 159.621C429.348 159.486 429.786 159.319 430.21 159.122C430.672 159.021 431.048 158.619 431.575 158.688C432.008 158.449 432.555 158.557 433.006 158.332C433.507 158.285 434.002 158.189 434.485 158.046C434.949 157.872 435.489 157.96 435.948 157.808C436.429 157.728 436.879 157.567 437.381 157.606C437.851 157.538 438.267 157.325 438.769 157.421C439.26 157.482 439.646 157.235 440.1 157.242C440.572 157.313 440.901 156.953 441.356 157.049C441.754 156.593 441.882 156.953 442.118 156.931C442.261 156.965 442.444 156.633 442.878 156.823C443.185 156.812 443.39 156.906 443.699 156.92C443.66 156.811 444.328 156.953 444.401 156.639C444.73 156.279 444.859 156.738 445.18 156.61C445.617 156.786 445.749 156.332 445.925 156.47C446.152 156.201 446.521 156.911 446.692 156.395C446.834 156.245 447.165 156.311 447.453 156.287C447.643 156.383 447.913 156.059 448.209 156.155C448.431 156.009 448.705 156.027 448.985 156.063C449.245 156.036 449.527 156.078 449.749 155.925C449.992 155.837 450.33 156.049 450.522 155.803C450.742 155.639 451.048 155.752 451.297 155.679C451.55 155.619 451.865 155.763 452.066 155.53C452.34 155.535 452.559 155.371 452.84 155.389C453.063 155.23 453.353 155.297 453.613 155.245C453.97 155.224 454.295 155.099 454.643 155.049C454.984 154.976 455.339 154.95 455.67 154.85C455.988 154.705 456.336 154.66 456.691 154.646C457.251 154.706 457.695 154.336 458.217 154.208C458.69 153.918 459.217 153.779 459.728 153.585C460.231 153.362 460.782 153.286 461.233 152.886C461.734 152.654 462.228 152.4 462.737 152.216C463.226 151.966 463.761 151.882 464.252 151.687C464.499 151.598 464.751 151.532 465.002 151.463C465.243 151.363 465.557 151.507 465.755 151.266C466.182 150.894 466.703 150.851 467.235 150.834C467.733 150.709 468.21 150.516 468.704 150.375C469.195 150.209 469.685 150.059 470.175 149.874C470.7 149.782 471.203 149.59 471.656 149.309Z" fill="#33553C"/>
</g>
<rect x="49" y="305.023" width="90" height="8.18341" rx="4.09171" fill="#D4CFCA"/>
<rect x="453" y="225.023" width="90" height="8.18341" rx="4.09171" fill="#D4CFCA"/>
<rect x="150" y="285.023" width="90" height="8.18341" rx="4.09171" fill="#D4CFCA"/>
<rect x="554" y="205.023" width="90" height="8.18341" rx="4.09171" fill="#D4CFCA"/>
<rect x="354" y="244.742" width="90" height="8.18341" rx="4.09171" fill="#D4CFCA"/>
<rect x="758" y="164.742" width="90" height="8.18341" rx="4.09171" fill="#D4CFCA"/>
<rect x="251" y="265.023" width="90" height="8" rx="4" fill="#D4CFCA"/>
<rect x="655" y="185.023" width="90" height="8" rx="4" fill="#D4CFCA"/>
<text fill="#74A683" xml:space="preserve" style="white-space: pre" font-family="Oracle Sans" font-size="14" font-weight="bold" letter-spacing="0em"><tspan x="40.1152" y="313.112">1</tspan></text>
<text fill="#74A683" xml:space="preserve" style="white-space: pre" font-family="Oracle Sans" font-size="14" font-weight="bold" letter-spacing="0em"><tspan x="443.021" y="233.112">5</tspan></text>
<text fill="#4F7D7B" xml:space="preserve" style="white-space: pre" font-family="Oracle Sans" font-size="14" font-weight="bold" letter-spacing="0em"><tspan x="140.315" y="293.112">2</tspan></text>
<text fill="#4F7D7B" xml:space="preserve" style="white-space: pre" font-family="Oracle Sans" font-size="14" font-weight="bold" letter-spacing="0em"><tspan x="543.721" y="213.112">6</tspan></text>
<text fill="#437C94" xml:space="preserve" style="white-space: pre" font-family="Oracle Sans" font-size="14" font-weight="bold" letter-spacing="0em"><tspan x="241.254" y="273.112">3</tspan></text>
<text fill="#437C94" xml:space="preserve" style="white-space: pre" font-family="Oracle Sans" font-size="14" font-weight="bold" letter-spacing="0em"><tspan x="645.028" y="193.112">7</tspan></text>
<text fill="#6B7494" xml:space="preserve" style="white-space: pre" font-family="Oracle Sans" font-size="14" font-weight="bold" letter-spacing="0em"><tspan x="342.557" y="255.112">4</tspan></text>
<text fill="#6B7494" xml:space="preserve" style="white-space: pre" font-family="Oracle Sans" font-size="14" font-weight="bold" letter-spacing="0em"><tspan x="746.741" y="175.112">8</tspan></text>
<text fill="#312D2A" xml:space="preserve" style="white-space: pre" font-family="Oracle Sans" font-size="14" letter-spacing="0em"><tspan x="49" y="337.112">Take an </tspan><tspan x="49" y="355.112">inventory</tspan></text>
<text fill="#312D2A" xml:space="preserve" style="white-space: pre" font-family="Oracle Sans" font-size="14" letter-spacing="0em"><tspan x="150" y="317.112">Look at the </tspan><tspan x="150" y="335.112">business </tspan><tspan x="150" y="353.112">factors</tspan></text>
<text fill="#312D2A" xml:space="preserve" style="white-space: pre" font-family="Oracle Sans" font-size="14" letter-spacing="0em"><tspan x="251" y="296.112">Present the </tspan><tspan x="251" y="314.112">business case, </tspan><tspan x="251" y="332.112">determine </tspan><tspan x="251" y="350.112">budgets, set&#10;</tspan><tspan x="251" y="368.112">a timeline</tspan></text>
<text fill="#312D2A" xml:space="preserve" style="white-space: pre" font-family="Oracle Sans" font-size="14" letter-spacing="0em"><tspan x="354" y="276.112">Determine </tspan><tspan x="354" y="294.112">a plan for </tspan><tspan x="354" y="312.112">each asset</tspan></text>
<text fill="#312D2A" xml:space="preserve" style="white-space: pre" font-family="Oracle Sans" font-size="14" letter-spacing="0em"><tspan x="453" y="257.112">Look at </tspan><tspan x="453" y="275.112">staffing </tspan><tspan x="453" y="293.112">concerns</tspan></text>
<text fill="#312D2A" xml:space="preserve" style="white-space: pre" font-family="Oracle Sans" font-size="14" letter-spacing="0em"><tspan x="554" y="237.112">Engage cloud </tspan><tspan x="554" y="255.112">providers&#x2019; </tspan><tspan x="554" y="273.112">migration </tspan><tspan x="554" y="291.112">services</tspan></text>
<text fill="#312D2A" xml:space="preserve" style="white-space: pre" font-family="Oracle Sans" font-size="14" letter-spacing="0em"><tspan x="655" y="216.112">Begin a </tspan><tspan x="655" y="234.112">phased </tspan><tspan x="655" y="252.112">migration</tspan></text>
<text fill="#312D2A" xml:space="preserve" style="white-space: pre" font-family="Oracle Sans" font-size="14" letter-spacing="0em"><tspan x="758" y="196.112">Turn out </tspan><tspan x="758" y="214.112">the lights</tspan></text>
<path d="M558.984 162.925C560.246 162.258 561.138 161.097 561.421 159.72C561.77 158 562.945 156.538 564.577 155.828C565.425 155.462 566.361 155.312 567.275 155.398C568.711 155.527 570.104 155.011 571.083 154C572.41 152.538 574.325 151.72 576.327 151.72C578.96 151.72 581.332 153.118 582.616 155.376H584.64C584.509 155.226 584.401 155.054 584.314 154.882C582.79 151.871 579.722 150 576.327 150C573.847 150 571.475 151.032 569.799 152.817C569.19 153.462 568.341 153.763 567.427 153.677C566.209 153.57 564.99 153.763 563.859 154.237C561.704 155.183 560.159 157.097 559.702 159.398C559.528 160.258 558.962 160.989 558.179 161.419C555.22 162.925 553.326 165.806 553.065 169.075L553 170H565.012V168.28H554.937C555.394 166 556.852 164.043 558.984 162.925Z" fill="#FBF9F8"/>
<path d="M571.54 162.709H580.897V156.666H571.54V162.709ZM573.281 158.386H579.156V160.989H573.281V158.386Z" fill="#FBF9F8"/>
<path d="M582.203 162.709H591.56V156.666H582.203V162.709ZM583.944 158.386H589.819V160.989H583.944V158.386Z" fill="#FBF9F8"/>
<path d="M566.317 170H575.674V163.979H566.317V170ZM568.058 165.699H573.934V168.28H568.058V165.699Z" fill="#FBF9F8"/>
<path d="M576.98 170H586.338V163.979H576.98V170ZM578.721 165.699H584.597V168.28H578.721V165.699Z" fill="#FBF9F8"/>
<path d="M587.643 163.979V170H597V163.979H587.643ZM595.259 168.28H589.383V165.699H595.259V168.28Z" fill="#FBF9F8"/>
<g clip-path="url(#clip1_1047_91959)">
<path d="M792.789 112.781C791.909 112.211 790.942 111.816 789.932 111.575C789.052 111.378 788.321 110.786 787.913 109.975C786.409 106.907 783.402 105 780.029 105C777.58 105 775.238 106.052 773.584 107.871C772.983 108.529 772.145 108.836 771.243 108.748C770.04 108.638 768.837 108.836 767.72 109.318C765.593 110.282 764.068 112.233 763.617 114.578C763.445 115.455 762.886 116.2 762.091 116.638C759.191 118.173 757.322 121.11 757.064 124.441L757 125.384H769.61C769.546 124.945 769.503 124.507 769.503 124.068C769.503 123.915 769.503 123.784 769.503 123.63H758.912C759.363 121.307 760.802 119.312 762.908 118.173C764.175 117.493 765.034 116.31 765.314 114.907C765.657 113.153 766.817 111.663 768.429 110.94C769.266 110.567 770.19 110.414 771.092 110.501C772.51 110.633 773.885 110.107 774.852 109.077C776.162 107.586 778.053 106.753 780.029 106.753C782.736 106.753 785.163 108.288 786.366 110.764C787.011 112.058 788.171 112.978 789.546 113.285C790.362 113.46 791.135 113.789 791.866 114.249C794.959 116.244 796.119 120.277 794.637 123.63H785.829C785.829 123.784 785.829 123.915 785.829 124.068C785.829 124.507 785.786 124.945 785.722 125.384H795.668L795.904 124.923C798.16 120.671 796.785 115.345 792.789 112.781Z" fill="#FBF9F8"/>
<path d="M778.525 111.137H776.807V114.863H778.525V111.137Z" fill="#FBF9F8"/>
<path d="M788.192 117.368L785.053 119.094L785.868 120.637L789.007 118.912L788.192 117.368Z" fill="#FBF9F8"/>
<path d="M783.349 112.664L781.396 115.709L782.835 116.669L784.787 113.624L783.349 112.664Z" fill="#FBF9F8"/>
<path d="M771.98 112.683L770.542 113.643L772.494 116.688L773.932 115.728L771.98 112.683Z" fill="#FBF9F8"/>
<path d="M767.139 117.374L766.324 118.918L769.464 120.644L770.279 119.1L767.139 117.374Z" fill="#FBF9F8"/>
<path d="M777.752 117.164C774.014 117.164 770.878 120.298 770.878 124.002C770.878 126.457 771.673 127.816 772.36 129.044C772.919 130.008 773.348 130.753 773.348 131.959V134.83L774.573 137H780.674L782.156 134.874V131.959C782.156 130.753 782.564 129.986 783.08 129.022C783.724 127.816 784.455 126.435 784.455 124.002C784.455 120.233 781.447 117.164 777.752 117.164ZM780.438 134.304L779.772 135.246H775.561L775.067 134.348V132.835H780.438V134.304ZM781.576 128.189C781.125 129.022 780.652 129.898 780.502 131.082H778.526V127.575H776.807V131.082H775.003C774.831 129.876 774.337 129 773.842 128.167C773.198 127.049 772.597 125.997 772.597 124.024C772.597 121.57 774.68 118.939 777.752 118.939C780.846 118.939 782.736 121.591 782.736 124.024C782.736 125.997 782.178 127.071 781.576 128.189Z" fill="#FBF9F8"/>
</g>
<g clip-path="url(#clip2_1047_91959)">
<path d="M691.684 132.778C690.781 132.208 689.791 131.814 688.756 131.573C687.853 131.376 687.104 130.784 686.686 129.974C685.144 126.906 682.04 125 678.605 125C676.095 125 673.694 126.052 671.977 127.87C671.382 128.528 670.502 128.834 669.577 128.747C668.344 128.637 667.111 128.834 665.966 129.338C663.786 130.28 662.222 132.252 661.76 134.575C661.584 135.451 661.011 136.196 660.197 136.634C657.246 138.168 655.33 141.104 655.066 144.434L655 145.376H673.981V143.624H656.96C657.422 141.301 658.897 139.285 661.055 138.168C662.332 137.489 663.235 136.306 663.521 134.903C663.874 133.151 665.063 131.661 666.714 130.938C667.573 130.565 668.52 130.412 669.445 130.499C670.92 130.631 672.307 130.127 673.298 129.053C674.641 127.585 676.579 126.753 678.605 126.753C681.379 126.753 683.867 128.287 685.1 130.762C685.761 132.055 686.95 132.975 688.359 133.282C689.196 133.457 689.989 133.786 690.737 134.246C693.908 136.24 695.097 140.271 693.578 143.624H678.385V145.376H694.635L694.877 144.916C697.189 140.666 695.78 135.342 691.684 132.778Z" fill="#FBF9F8"/>
<path d="M688.513 149.977H688.447L685.122 146.669L683.867 147.917L685.937 149.977H684.77C680.873 149.977 678.473 150.919 677.063 153.022V138.956L679.133 141.016L680.388 139.767L676.183 135.582L671.977 139.767L673.232 141.016L675.302 138.956V153.022C673.893 150.919 671.492 149.977 667.595 149.977H665.085L667.155 147.917L665.899 146.669L661.716 150.853L665.922 155.038L667.177 153.789L665.107 151.73H667.595C674.245 151.73 675.302 154.381 675.302 162.904V163.999H677.063V162.904C677.063 154.381 678.12 151.73 684.77 151.73H685.937L683.867 153.789L685.122 155.038L688.447 151.73H688.513V151.664L689.328 150.853L688.513 150.043V149.977Z" fill="#FBF9F8"/>
</g>
<g clip-path="url(#clip3_1047_91959)">
<path d="M51.5694 248.774C51.5694 248.657 51.6675 248.56 51.7852 248.56H59.4751C59.534 248.56 59.6124 248.599 59.6517 248.638L61.7311 251.289H77.6211C78.0526 250.704 78.5431 250.178 79.112 249.73H62.4962L60.8876 247.682C60.5541 247.253 60.0244 247 59.4751 247H51.7852C50.8043 247 50 247.799 50 248.774V271.956H53.5311V270.396H51.5694V248.774ZM85.7034 263.806V276.44H56.2775V255.969H76.0909C76.0909 255.715 76.1105 255.442 76.1301 255.189C76.1498 254.935 76.189 254.662 76.2478 254.409H54.7081V278H87.2727V263.319C87.0177 263.436 86.7627 263.533 86.488 263.611C86.233 263.689 85.978 263.767 85.7034 263.806ZM60.0048 270.182L65.8115 272.365L71.7751 270.182V262.383L65.8115 260.199L60.0048 262.403V270.182ZM61.5742 264.099L64.9091 265.464V270.357L61.5742 269.109V264.099ZM66.4785 270.474V265.581L70.2057 264.04V269.109L66.4785 270.474ZM65.8311 261.876L68.7541 262.948L65.8115 264.157L62.9081 262.968L65.8311 261.876ZM88.4498 261.272L88.3713 261.33L88.4498 261.272ZM84.134 249.145C80.3478 249.145 77.2679 252.206 77.2679 255.969C77.2679 259.731 80.3478 262.792 84.134 262.792C87.9201 262.792 91 259.731 91 255.969C91 252.206 87.9201 249.145 84.134 249.145ZM84.134 261.233C81.211 261.233 78.8373 258.874 78.8373 255.969C78.8373 253.064 81.211 250.704 84.134 250.704C87.0569 250.704 89.4306 253.064 89.4306 255.969C89.4306 258.874 87.0569 261.233 84.134 261.233ZM83.1923 256.69L81.9368 255.442L80.8187 256.534L83.1727 258.874L87.41 254.662L86.2919 253.551L83.1923 256.69ZM73.933 262.597H77.0718V264.157H73.933V262.597ZM73.933 265.327H83.3493V266.887H73.933V265.327ZM73.933 268.057H80.9952V269.616H73.933V268.057Z" fill="#FBF9F8"/>
</g>
<path d="M491.219 168.688H470.2L468.062 165.739C467.726 165.275 467.198 165 466.634 165H456.781C455.798 165 455 165.821 455 166.833V196H493V170.521C493 169.509 492.202 168.688 491.219 168.688ZM456.781 166.629H466.641C466.705 166.629 466.762 166.66 466.8 166.713L468.821 169.503L466.802 172.266C466.764 172.317 466.707 172.348 466.645 172.348H456.583V166.833C456.583 166.721 456.672 166.629 456.781 166.629ZM491.417 194.371H456.583V173.983H466.645C467.206 173.983 467.732 173.712 468.068 173.252L470.212 170.317H491.219C491.328 170.317 491.417 170.409 491.417 170.521V194.371ZM458.365 168.688H465.688V170.317H458.365V168.688ZM462.323 189.664H474.198V177.445H462.323V189.664ZM469.844 188.035H466.677V187.017C466.677 186.905 466.766 186.813 466.875 186.813H469.646C469.755 186.813 469.844 186.905 469.844 187.017V188.035ZM463.906 179.074H472.615V188.035H471.427V187.017C471.427 186.005 470.629 185.184 469.646 185.184H466.875C465.891 185.184 465.094 186.005 465.094 187.017V188.035H463.906V179.074ZM468.26 184.573C469.517 184.573 470.536 183.524 470.536 182.231C470.536 180.938 469.517 179.889 468.26 179.889C467.004 179.889 465.984 180.938 465.984 182.231C465.986 183.524 467.004 184.571 468.26 184.573ZM468.26 181.518C468.642 181.518 468.953 181.838 468.953 182.231C468.953 182.624 468.642 182.944 468.26 182.944C467.878 182.944 467.568 182.624 467.568 182.231C467.568 181.838 467.878 181.518 468.26 181.518ZM475.385 179.889H480.729V181.518H475.385V179.889ZM475.385 185.591H477.76V187.221H475.385V185.591ZM478.948 185.591H482.51V187.221H478.948V185.591ZM475.385 182.74H485.281V184.369H475.385V182.74Z" fill="#FBF9F8"/>
<g clip-path="url(#clip4_1047_91959)">
<path d="M286.786 209.034C283.715 204.846 278.997 202.283 273.919 202H273.215V217.978L287.25 209.671L286.786 209.034ZM274.554 215.592V203.396C278.706 203.838 282.532 205.941 285.191 209.247L274.554 215.592ZM286.598 212.905C286.495 212.728 286.392 212.552 286.289 212.375L285.946 211.809L272.186 219.692V203.944H271.5C261.875 203.944 254.068 211.986 254.068 221.919C254.068 231.834 261.875 239.876 271.517 239.876C281.159 239.876 288.948 231.834 288.948 221.901C288.948 218.738 288.142 215.645 286.598 212.905ZM270.813 238.48C262.218 238.091 255.441 230.809 255.424 221.937C255.424 213.1 262.338 205.835 270.813 205.376V238.48ZM272.186 238.48V222.414L285.397 230.261C282.635 235.14 277.659 238.233 272.186 238.48ZM286.032 229.007L272.632 221.035L285.465 213.718C286.855 216.228 287.576 219.056 287.576 221.937C287.576 224.376 287.044 226.797 286.032 229.007ZM261.223 220.576C261.24 219.303 262.218 218.278 263.453 218.26H263.951V216.847H265.323V218.26H267.382V219.674H263.453C262.973 219.692 262.595 220.081 262.595 220.576C262.612 221.053 262.99 221.442 263.453 221.442H265.666C266.902 221.442 267.897 222.467 267.897 223.74C267.897 225.012 266.902 226.037 265.666 226.037H265.323V227.451H263.951V226.037H261.377V224.623H265.666C266.147 224.623 266.524 224.234 266.524 223.74C266.524 223.245 266.147 222.856 265.666 222.856H263.453C262.235 222.856 261.24 221.831 261.223 220.576Z" fill="#FBF9F8"/>
</g>
<g clip-path="url(#clip5_1047_91959)">
<path d="M173.858 226.669L172.712 225.541L170.36 227.857L169.495 227.006L168.349 228.114L170.36 230.093L173.858 226.669Z" fill="#FBF9F8"/>
<path d="M181.379 232.488H183.41C182.002 230.529 180.112 228.946 177.94 227.877C177.92 228.431 177.82 228.985 177.639 229.52C179.066 230.272 180.333 231.281 181.379 232.488Z" fill="#FBF9F8"/>
<path d="M164.629 229.719C164.448 229.184 164.327 228.65 164.287 228.096C162.276 229.164 160.526 230.669 159.199 232.489H161.25C162.216 231.381 163.362 230.451 164.629 229.719Z" fill="#FBF9F8"/>
<path d="M171.103 233.083C172.209 233.083 173.315 232.766 174.24 232.152C175.165 231.539 175.889 230.668 176.311 229.659C176.734 228.649 176.854 227.521 176.633 226.452C176.412 225.384 175.869 224.394 175.085 223.622C174.3 222.85 173.295 222.316 172.209 222.098C171.103 221.9 169.977 221.999 168.951 222.415C167.926 222.831 167.041 223.543 166.418 224.453C165.794 225.364 165.473 226.452 165.473 227.541C165.473 229.006 166.076 230.411 167.122 231.46C168.167 232.509 169.615 233.083 171.103 233.083ZM168.268 224.75C169.012 223.998 170.037 223.583 171.103 223.583C171.907 223.583 172.672 223.82 173.335 224.256C173.999 224.691 174.522 225.304 174.823 226.037C175.125 226.769 175.205 227.561 175.044 228.333C174.884 229.104 174.501 229.797 173.938 230.351C173.375 230.906 172.651 231.282 171.887 231.44C171.103 231.578 170.299 231.499 169.575 231.202C168.831 230.906 168.207 230.391 167.765 229.738C167.323 229.085 167.081 228.333 167.081 227.541C167.081 226.492 167.504 225.483 168.268 224.75Z" fill="#FBF9F8"/>
<path d="M176.874 251.35C177.337 250.915 177.739 250.4 178.041 249.846L178.201 249.569L175.929 240.583H175.909C175.386 238.98 173.918 237.812 172.209 237.812H169.977C168.047 237.812 166.438 239.277 166.116 241.177L164.005 249.549L164.166 249.826C164.487 250.38 164.869 250.895 165.332 251.33C164.085 251.508 162.939 252.102 162.115 253.052C161.29 253.982 160.848 255.19 160.848 256.417V259.979H162.456V256.417C162.456 254.418 164.085 252.854 166.176 252.854H168.147C168.308 253.507 168.67 254.101 169.213 254.536C169.756 254.972 170.419 255.19 171.103 255.19C171.787 255.19 172.47 254.952 172.993 254.536C173.516 254.121 173.898 253.527 174.059 252.854H176.03C178.121 252.854 179.75 254.418 179.75 256.417V259.979H181.359V256.417C181.359 255.19 180.916 253.982 180.092 253.052C179.267 252.122 178.121 251.528 176.874 251.35ZM167.705 241.533L167.845 240.979C168.006 240.544 168.288 240.148 168.67 239.871C169.052 239.594 169.515 239.435 169.997 239.416H172.229C173.496 239.416 174.522 240.524 174.542 241.87C173.878 242.008 172.792 241.989 171.666 240.999L171.103 240.504L170.56 240.999C169.434 242.008 168.328 242.008 167.685 241.87C167.685 241.771 167.685 241.652 167.705 241.533ZM168.087 251.132C167.101 250.835 166.257 250.202 165.734 249.311L166.418 246.6C166.76 247.491 167.323 248.282 168.087 248.876V251.132ZM172.511 252.399C172.511 253.032 171.847 253.626 171.103 253.626C170.359 253.626 169.695 253.032 169.695 252.399V249.727C170.62 250.004 171.586 250.004 172.511 249.727V252.399ZM171.103 248.342C169.213 248.342 167.685 246.699 167.685 244.68V243.473C168.891 243.631 170.118 243.315 171.103 242.602C171.586 242.958 172.129 243.235 172.732 243.374C173.335 243.512 173.938 243.552 174.522 243.473V244.68C174.522 246.699 172.993 248.342 171.103 248.342ZM174.119 251.152V248.876C174.884 248.282 175.467 247.471 175.788 246.58L176.492 249.331C175.969 250.202 175.125 250.855 174.119 251.152Z" fill="#FBF9F8"/>
<path d="M160.848 236.447H154.815V238.031H160.848V236.447Z" fill="#FBF9F8"/>
<path d="M178.945 233.676V243.572H189V233.676H178.945ZM187.391 241.988H186.184V237.238H184.576V241.988H183.369V239.039H181.761V241.988H180.554V235.259H187.391V241.988Z" fill="#FBF9F8"/>
<path d="M163.663 243.572V233.676H152V241.592H160.064L161.672 243.572H163.663ZM153.609 240.009V235.259H162.054V241.513L160.828 240.009H153.609Z" fill="#FBF9F8"/>
</g>
<g clip-path="url(#clip6_1047_91959)">
<path d="M383.649 209.308L382.412 210.538V213.615H363.237V188.231H377.309V193.308H382.412V203.154L383.649 201.923V191.969L378.655 187H362V214.846H383.649V209.308ZM381.995 192.077H378.546V188.646L381.995 192.077ZM382.412 215.769H363.237H362V216.385L363.237 217H382.412L383.649 216.385V215.769H382.412ZM390.376 201.323L391.907 199.8L389.495 197.4L377.99 208.846L377.479 211.754L380.402 211.246L389.51 202.185L390.052 202.723C390.113 202.785 390.113 202.877 390.052 202.938L386.216 206.754L387.098 207.631L390.918 203.815C391.459 203.277 391.459 202.4 390.918 201.862L390.376 201.323ZM390.16 199.8L389.51 200.446L388.861 199.8L389.51 199.154L390.16 199.8ZM379.799 210.108L379.01 210.246L379.149 209.462L387.979 200.677L388.629 201.323L379.799 210.108ZM368 200.354L369.268 199.092L370.536 200.354L371.418 199.477L370.149 198.215L371.418 196.954L370.536 196.077L369.268 197.338L368 196.077L367.119 196.954L368.387 198.215L367.119 199.477L368 200.354ZM377.495 203.185L376.227 204.446L374.959 203.185L374.077 204.062L375.345 205.323L374.077 206.585L374.959 207.462L376.227 206.2L377.495 207.462L378.376 206.585L377.108 205.323L378.376 204.062L377.495 203.185ZM369.268 207.646C370.567 207.646 371.619 206.6 371.619 205.308C371.619 204.015 370.567 202.969 369.268 202.969C367.969 202.969 366.918 204.015 366.918 205.308C366.918 206.6 367.969 207.646 369.268 207.646ZM369.268 204.2C369.887 204.2 370.381 204.692 370.381 205.308C370.381 205.923 369.887 206.415 369.268 206.415C368.649 206.415 368.155 205.923 368.155 205.308C368.155 204.692 368.649 204.2 369.268 204.2ZM378.392 196.077H374.216V197.308H376.304C372.887 199.185 371.82 202.631 371.773 202.8L372.964 203.154C372.979 203.123 374 199.862 377.17 198.246V200.231H378.407L378.392 196.077Z" fill="#FBF9F8"/>
</g>
<path d="M287.675 430.96C257.987 435.097 158.603 479.419 134.113 485.565C395.581 680.958 934.632 990.462 934.632 990.462C934.632 990.462 925.922 877.328 909.835 823.364C899.436 788.479 891.921 744.433 900.085 694.333C908.25 644.234 918.35 609.643 928.232 519.666C938.114 429.689 917.834 393.446 895.372 364.038C872.911 334.63 836.055 338.648 810.587 351.162C785.119 363.676 749.438 387.878 732.177 396.012C703.65 409.454 673.462 412.085 646.842 420.59C617.093 430.095 516.786 426.862 465.598 420.296C414.409 413.731 324.786 425.789 287.675 430.96Z" fill="#F1EFED"/>
</g>
<defs>
<clipPath id="clip0_1047_91959">
<rect width="888" height="450" fill="white"/>
</clipPath>
<clipPath id="clip1_1047_91959">
<rect width="40" height="32" fill="white" transform="translate(757 105)"/>
</clipPath>
<clipPath id="clip2_1047_91959">
<rect width="41" height="39" fill="white" transform="translate(655 125)"/>
</clipPath>
<clipPath id="clip3_1047_91959">
<rect width="41" height="31" fill="white" transform="translate(50 247)"/>
</clipPath>
<clipPath id="clip4_1047_91959">
<rect width="35" height="38" fill="white" transform="translate(254 202)"/>
</clipPath>
<clipPath id="clip5_1047_91959">
<rect width="37" height="38" fill="white" transform="translate(152 222)"/>
</clipPath>
<clipPath id="clip6_1047_91959">
<rect width="30" height="30" fill="white" transform="translate(362 187)"/>
</clipPath>
</defs>
</svg>
